<mxfile host="" modified="2020-07-18T10:24:26.296Z" agent="5.0 (X11; Linux x86_64) AppleWebKit/537.36 (KHTML, like Gecko) Code-Insiders/1.45.0-insider Chrome/78.0.3904.130 Electron/7.2.2 Safari/537.36" etag="ppIs9L5HISdu26qU2N1d" version="13.1.3">
    <diagram id="6hGFLwfOUW9BJ-s0fimq" name="Page-1">
        <mxGraphModel dx="1439" dy="694" grid="0" gridSize="10" guides="1" tooltips="1" connect="1" arrows="1" fold="1" page="0" pageScale="1" pageWidth="827" pageHeight="1169" math="0" shadow="0">
            <root>
                <mxCell id="0"/>
                <mxCell id="1" parent="0"/>
                <mxCell id="114" value="" style="rounded=1;whiteSpace=wrap;html=1;" vertex="1" parent="1">
                    <mxGeometry x="275" y="907" width="499" height="234" as="geometry"/>
                </mxCell>
                <mxCell id="113" value="" style="rounded=1;whiteSpace=wrap;html=1;" vertex="1" parent="1">
                    <mxGeometry x="500" y="465" width="298" height="364" as="geometry"/>
                </mxCell>
                <mxCell id="111" value="" style="rounded=1;whiteSpace=wrap;html=1;" vertex="1" parent="1">
                    <mxGeometry x="79" y="465" width="373" height="367" as="geometry"/>
                </mxCell>
                <mxCell id="56" style="edgeStyle=orthogonalEdgeStyle;rounded=0;orthogonalLoop=1;jettySize=auto;html=1;exitX=1;exitY=0.5;exitDx=0;exitDy=0;entryX=0;entryY=0.5;entryDx=0;entryDy=0;startArrow=none;startFill=0;endArrow=none;endFill=0;" edge="1" parent="1" source="55" target="33">
                    <mxGeometry relative="1" as="geometry"/>
                </mxCell>
                <mxCell id="55" value="" style="rounded=1;whiteSpace=wrap;html=1;fillColor=#d5e8d4;strokeColor=#82b366;" vertex="1" parent="1">
                    <mxGeometry x="-203" y="134" width="207" height="100" as="geometry"/>
                </mxCell>
                <mxCell id="33" value="" style="rounded=1;whiteSpace=wrap;html=1;fillColor=#eeeeee;strokeColor=#36393d;" vertex="1" parent="1">
                    <mxGeometry x="130" y="8" width="600" height="352" as="geometry"/>
                </mxCell>
                <mxCell id="49" value="" style="rounded=1;whiteSpace=wrap;html=1;fillColor=#dae8fc;strokeColor=#6c8ebf;" vertex="1" parent="1">
                    <mxGeometry x="579" y="248" width="106" height="100" as="geometry"/>
                </mxCell>
                <mxCell id="47" value="" style="rounded=1;whiteSpace=wrap;html=1;fillColor=#dae8fc;strokeColor=#6c8ebf;" vertex="1" parent="1">
                    <mxGeometry x="579" y="148" width="106" height="100" as="geometry"/>
                </mxCell>
                <mxCell id="46" value="" style="rounded=1;whiteSpace=wrap;html=1;fillColor=#dae8fc;strokeColor=#6c8ebf;" vertex="1" parent="1">
                    <mxGeometry x="579" y="48" width="106" height="100" as="geometry"/>
                </mxCell>
                <mxCell id="45" value="" style="rounded=1;whiteSpace=wrap;html=1;fillColor=#d5e8d4;strokeColor=#82b366;" vertex="1" parent="1">
                    <mxGeometry x="430" y="194" width="138" height="103" as="geometry"/>
                </mxCell>
                <mxCell id="44" value="" style="rounded=1;whiteSpace=wrap;html=1;fillColor=#d5e8d4;strokeColor=#82b366;" vertex="1" parent="1">
                    <mxGeometry x="430" y="88" width="138" height="103" as="geometry"/>
                </mxCell>
                <mxCell id="43" value="" style="rounded=1;whiteSpace=wrap;html=1;fillColor=#b0e3e6;strokeColor=#0e8088;" vertex="1" parent="1">
                    <mxGeometry x="166" y="238" width="243" height="88" as="geometry"/>
                </mxCell>
                <mxCell id="42" value="" style="rounded=1;whiteSpace=wrap;html=1;fillColor=#b0e3e6;strokeColor=#0e8088;" vertex="1" parent="1">
                    <mxGeometry x="166" y="150" width="243" height="88" as="geometry"/>
                </mxCell>
                <mxCell id="38" value="" style="rounded=1;whiteSpace=wrap;html=1;fillColor=#b0e3e6;strokeColor=#0e8088;" vertex="1" parent="1">
                    <mxGeometry x="166" y="62" width="243" height="88" as="geometry"/>
                </mxCell>
                <mxCell id="2" value="" style="pointerEvents=1;shadow=0;dashed=0;html=1;strokeColor=none;labelPosition=center;verticalLabelPosition=bottom;verticalAlign=top;outlineConnect=0;align=center;shape=mxgraph.office.concepts.node_generic;fillColor=#7FBA42;" vertex="1" parent="1">
                    <mxGeometry x="-56" y="166" width="46" height="52" as="geometry"/>
                </mxCell>
                <mxCell id="3" value="172.19.0.1" style="text;html=1;strokeColor=none;fillColor=none;align=center;verticalAlign=middle;whiteSpace=wrap;rounded=0;" vertex="1" parent="1">
                    <mxGeometry x="-53" y="143" width="40" height="20" as="geometry"/>
                </mxCell>
                <mxCell id="4" value="" style="pointerEvents=1;shadow=0;dashed=0;html=1;strokeColor=none;labelPosition=center;verticalLabelPosition=bottom;verticalAlign=top;outlineConnect=0;align=center;shape=mxgraph.office.concepts.node_generic;fillColor=#2072B8;" vertex="1" parent="1">
                    <mxGeometry x="184" y="88" width="46" height="52" as="geometry"/>
                </mxCell>
                <mxCell id="5" value="" style="pointerEvents=1;shadow=0;dashed=0;html=1;strokeColor=none;labelPosition=center;verticalLabelPosition=bottom;verticalAlign=top;outlineConnect=0;align=center;shape=mxgraph.office.concepts.node_generic;fillColor=#2072B8;" vertex="1" parent="1">
                    <mxGeometry x="184" y="174" width="46" height="52" as="geometry"/>
                </mxCell>
                <mxCell id="6" value="" style="pointerEvents=1;shadow=0;dashed=0;html=1;strokeColor=none;labelPosition=center;verticalLabelPosition=bottom;verticalAlign=top;outlineConnect=0;align=center;shape=mxgraph.office.concepts.node_generic;fillColor=#2072B8;" vertex="1" parent="1">
                    <mxGeometry x="184" y="266" width="46" height="52" as="geometry"/>
                </mxCell>
                <mxCell id="7" value="172.19.0.42" style="text;html=1;strokeColor=none;fillColor=none;align=center;verticalAlign=middle;whiteSpace=wrap;rounded=0;" vertex="1" parent="1">
                    <mxGeometry x="187" y="68" width="40" height="20" as="geometry"/>
                </mxCell>
                <mxCell id="8" value="172.19.0.43" style="text;html=1;strokeColor=none;fillColor=none;align=center;verticalAlign=middle;whiteSpace=wrap;rounded=0;" vertex="1" parent="1">
                    <mxGeometry x="190" y="154" width="40" height="20" as="geometry"/>
                </mxCell>
                <mxCell id="9" value="172.19.0.44" style="text;html=1;strokeColor=none;fillColor=none;align=center;verticalAlign=middle;whiteSpace=wrap;rounded=0;" vertex="1" parent="1">
                    <mxGeometry x="187" y="246" width="40" height="20" as="geometry"/>
                </mxCell>
                <mxCell id="11" value="heartbeat&lt;br&gt;haproxy&lt;br&gt;etcd" style="rounded=1;whiteSpace=wrap;html=1;fillColor=#b1ddf0;strokeColor=#10739e;" vertex="1" parent="1">
                    <mxGeometry x="268" y="80" width="120" height="60" as="geometry"/>
                </mxCell>
                <mxCell id="12" value="heartbeat&lt;br&gt;haproxy&lt;br&gt;etcd" style="rounded=1;whiteSpace=wrap;html=1;fillColor=#b1ddf0;strokeColor=#10739e;" vertex="1" parent="1">
                    <mxGeometry x="268" y="166" width="120" height="60" as="geometry"/>
                </mxCell>
                <mxCell id="13" value="etcd" style="rounded=1;whiteSpace=wrap;html=1;fillColor=#b1ddf0;strokeColor=#10739e;" vertex="1" parent="1">
                    <mxGeometry x="268" y="254" width="120" height="60" as="geometry"/>
                </mxCell>
                <mxCell id="14" value="" style="pointerEvents=1;shadow=0;dashed=0;html=1;strokeColor=none;labelPosition=center;verticalLabelPosition=bottom;verticalAlign=top;outlineConnect=0;align=center;shape=mxgraph.office.concepts.node_generic;fillColor=#2072B8;" vertex="1" parent="1">
                    <mxGeometry x="464" y="118" width="46" height="52" as="geometry"/>
                </mxCell>
                <mxCell id="15" value="172.19.0.45" style="text;html=1;strokeColor=none;fillColor=none;align=center;verticalAlign=middle;whiteSpace=wrap;rounded=0;" vertex="1" parent="1">
                    <mxGeometry x="467" y="98" width="40" height="20" as="geometry"/>
                </mxCell>
                <mxCell id="16" value="" style="pointerEvents=1;shadow=0;dashed=0;html=1;strokeColor=none;labelPosition=center;verticalLabelPosition=bottom;verticalAlign=top;outlineConnect=0;align=center;shape=mxgraph.office.concepts.node_generic;fillColor=#2072B8;" vertex="1" parent="1">
                    <mxGeometry x="467" y="222" width="46" height="52" as="geometry"/>
                </mxCell>
                <mxCell id="17" value="172.19.0.46" style="text;html=1;strokeColor=none;fillColor=none;align=center;verticalAlign=middle;whiteSpace=wrap;rounded=0;" vertex="1" parent="1">
                    <mxGeometry x="470" y="202" width="40" height="20" as="geometry"/>
                </mxCell>
                <mxCell id="20" value="" style="pointerEvents=1;shadow=0;dashed=0;html=1;strokeColor=none;labelPosition=center;verticalLabelPosition=bottom;verticalAlign=top;outlineConnect=0;align=center;shape=mxgraph.office.concepts.node_generic;fillColor=#2072B8;" vertex="1" parent="1">
                    <mxGeometry x="594" y="80" width="46" height="52" as="geometry"/>
                </mxCell>
                <mxCell id="21" value="172.19.0.47" style="text;html=1;strokeColor=none;fillColor=none;align=center;verticalAlign=middle;whiteSpace=wrap;rounded=0;" vertex="1" parent="1">
                    <mxGeometry x="597" y="58" width="40" height="20" as="geometry"/>
                </mxCell>
                <mxCell id="22" value="" style="pointerEvents=1;shadow=0;dashed=0;html=1;strokeColor=none;labelPosition=center;verticalLabelPosition=bottom;verticalAlign=top;outlineConnect=0;align=center;shape=mxgraph.office.concepts.node_generic;fillColor=#2072B8;" vertex="1" parent="1">
                    <mxGeometry x="597" y="174" width="46" height="52" as="geometry"/>
                </mxCell>
                <mxCell id="23" value="172.19.0.48" style="text;html=1;strokeColor=none;fillColor=none;align=center;verticalAlign=middle;whiteSpace=wrap;rounded=0;" vertex="1" parent="1">
                    <mxGeometry x="600" y="154" width="40" height="20" as="geometry"/>
                </mxCell>
                <mxCell id="26" value="" style="pointerEvents=1;shadow=0;dashed=0;html=1;strokeColor=none;labelPosition=center;verticalLabelPosition=bottom;verticalAlign=top;outlineConnect=0;align=center;shape=mxgraph.office.concepts.node_generic;fillColor=#2072B8;" vertex="1" parent="1">
                    <mxGeometry x="597" y="277" width="46" height="52" as="geometry"/>
                </mxCell>
                <mxCell id="27" value="172.19.0.49" style="text;html=1;strokeColor=none;fillColor=none;align=center;verticalAlign=middle;whiteSpace=wrap;rounded=0;" vertex="1" parent="1">
                    <mxGeometry x="603" y="258" width="40" height="20" as="geometry"/>
                </mxCell>
                <mxCell id="28" value="master" style="text;html=1;strokeColor=none;fillColor=none;align=center;verticalAlign=middle;whiteSpace=wrap;rounded=0;" vertex="1" parent="1">
                    <mxGeometry x="513" y="158" width="40" height="20" as="geometry"/>
                </mxCell>
                <mxCell id="29" value="master" style="text;html=1;strokeColor=none;fillColor=none;align=center;verticalAlign=middle;whiteSpace=wrap;rounded=0;" vertex="1" parent="1">
                    <mxGeometry x="513" y="262" width="40" height="20" as="geometry"/>
                </mxCell>
                <mxCell id="30" value="worker" style="text;html=1;strokeColor=none;fillColor=none;align=center;verticalAlign=middle;whiteSpace=wrap;rounded=0;" vertex="1" parent="1">
                    <mxGeometry x="643" y="120" width="40" height="20" as="geometry"/>
                </mxCell>
                <mxCell id="31" value="worker" style="text;html=1;strokeColor=none;fillColor=none;align=center;verticalAlign=middle;whiteSpace=wrap;rounded=0;" vertex="1" parent="1">
                    <mxGeometry x="643" y="210" width="40" height="20" as="geometry"/>
                </mxCell>
                <mxCell id="32" value="worker" style="text;html=1;strokeColor=none;fillColor=none;align=center;verticalAlign=middle;whiteSpace=wrap;rounded=0;" vertex="1" parent="1">
                    <mxGeometry x="640" y="314" width="40" height="20" as="geometry"/>
                </mxCell>
                <mxCell id="35" value="172.19.0.41&lt;br&gt;VIP" style="text;html=1;strokeColor=none;fillColor=none;align=center;verticalAlign=middle;whiteSpace=wrap;rounded=0;" vertex="1" parent="1">
                    <mxGeometry x="76" y="146" width="40" height="20" as="geometry"/>
                </mxCell>
                <mxCell id="37" value="KVM虚拟化" style="text;html=1;strokeColor=none;fillColor=none;align=center;verticalAlign=middle;whiteSpace=wrap;rounded=0;" vertex="1" parent="1">
                    <mxGeometry x="180" y="20" width="40" height="20" as="geometry"/>
                </mxCell>
                <mxCell id="48" style="edgeStyle=orthogonalEdgeStyle;rounded=0;orthogonalLoop=1;jettySize=auto;html=1;exitX=0.5;exitY=1;exitDx=0;exitDy=0;startArrow=classic;startFill=1;" edge="1" parent="1" source="32" target="32">
                    <mxGeometry relative="1" as="geometry"/>
                </mxCell>
                <mxCell id="53" value="Jenkins&lt;br&gt;Nexus" style="rounded=1;whiteSpace=wrap;html=1;fillColor=#cdeb8b;strokeColor=#36393d;" vertex="1" parent="1">
                    <mxGeometry x="-196" y="156" width="120" height="60" as="geometry"/>
                </mxCell>
                <mxCell id="109" style="edgeStyle=orthogonalEdgeStyle;curved=1;rounded=0;orthogonalLoop=1;jettySize=auto;html=1;entryX=0.24;entryY=0.24;entryDx=0;entryDy=0;entryPerimeter=0;dashed=1;startArrow=none;startFill=0;endArrow=block;endFill=1;" edge="1" parent="1" source="57" target="62">
                    <mxGeometry relative="1" as="geometry">
                        <Array as="points">
                            <mxPoint x="-23" y="523"/>
                        </Array>
                    </mxGeometry>
                </mxCell>
                <mxCell id="112" style="edgeStyle=orthogonalEdgeStyle;curved=1;rounded=0;orthogonalLoop=1;jettySize=auto;html=1;entryX=0;entryY=0.5;entryDx=0;entryDy=0;startArrow=none;startFill=0;endArrow=block;endFill=1;" edge="1" parent="1" source="57" target="111">
                    <mxGeometry relative="1" as="geometry"/>
                </mxCell>
                <mxCell id="57" value="" style="dashed=0;outlineConnect=0;html=1;align=center;labelPosition=center;verticalLabelPosition=bottom;verticalAlign=top;shape=mxgraph.weblogos.github" vertex="1" parent="1">
                    <mxGeometry x="-64" y="611" width="75" height="75" as="geometry"/>
                </mxCell>
                <mxCell id="58" value="" style="shape=image;verticalLabelPosition=bottom;labelBackgroundColor=#ffffff;verticalAlign=top;aspect=fixed;imageAspect=0;image=data:image/png,iVBORw0KGgoAAAANSUhEUgAAAHoAAACICAIAAACnYWihAAAgAElEQVR4Ae1dCVhUVd8/s+8jyDIImFtuaKBvokCLKUvLZ5FKWq/mWm9apuaWLdqi2WIub5tlpfamLYYLatkLqJWmDGgK6gAiaDJswrDcubPPvfd7zj3M8TIMMAyLft/jfXzk3HPP+rv/+Z//ds7lMQwDbl/dhQC/uzq63Q9E4Dbc3UoHt+G+DXe3ItCtnd2m7ttwdysC3drZberuVriF3dpbhzvT6XQFuny9Xl+mhxdsj6EBgKrDmNGjgEASERERGh4WERHR4a66pAHera/m6PX6zPQMbVZWRnq69xiMiYlJTEqalDJZrVZ7X6urS966cBMEkZmesSc1VZuV1QoKo0cOyz57sZUCiUlJs+bMHhMT00qZbnt0K8JNEMSObdt3bNtGEERzIEaPHDbx4XGjRw4P6xXs9jT77IX8oqvZZy8UFF0pq6zmPk1MSnpt9arw8HBuZvenby24Wwd64sPjFsyZ2hxlj6hl/qE9cjw783i2kTShAmq1+rXVqyanpHgs3z2ZtxDce1P3rH37bUTRw++6Kz5+3N3/uHv5ihVVlVXRI4a9OHfq6JHD2wSFppwAGd14PL4ACgL7fjn6ybYfMbFPTkl5/8P1bbbTRQVuCbi1WVkvL1uOJI377r/v2Wee0YRo8nLPv/vuuzabdeHcJ2dOmeA2f4ahGaeDoZ0MTTM0xVAOtwKNtzwejy/kC0Xf7j/y3sc7UOZNRPwmw00QxMvLliORIzEx8emnp2tCNPqysu+/++H4H78PGzxg/apFXO7BMDTtsNN2C0M7PePbcm7B1crFaz4tr7gOALhZiN9MuDPS01csW24kiP4D+s+bNy8qKrK6uuaP4yd++flnfWnp/FlPLHrmKYweBNpuoeyWRl6BH7QnQZDmua9+VHj5ys1C/KbBvSc19eVlywEAiYmJ8+Y/p1QqtdqcLG321SsluosX3311wcRHxmMkaYfNaTV2BGjcFET8lU2FxdduCuI3R4nHWM+b99yy5UtFItF33/+Ypc12OBwlxcVcrBmGdlqMTgvRKVgDANRK+ZqXZqgUcgDAntTUPamp+E10Q+ImULder3/g3vsAAPPmPTdx0kSbzbZn7/7q6hoAwPncc9MmJs5yLYwQa1ODD2y6NeB4PL5IeuxU7ourNkD01eqdP3zfbUr/TaBuxENi42LdsC7T6wf0Ce1SrHl8oUjZUyhVJo6754XZUwAABEG88/aa1l5Ppz7rbhOVXq/XZmUpFIr58+ZlZGSk7T9w9epVmRz+tImGhiM/fY5n5zQT7nTN4wskCh4fkghltzBOOy7sZUIoV/N4/H2Hj5VVXOfxeGqlgiBNyBqTmJTkZSMdKdbdcH+zbTsAwGQyzZgxE49bJRBYrdaw0BAs8zmtpJsozRdJBVKFkbQcOXGqoAiKFk9NuD80sAdupM0ETyAymqwzF67OZ6tzy+9JTf3/BjdBENOffEqn0+F5PvDA2LEPjI2LiwMAfPvtzp3f7swvujJ0YD/a6aDtFlwMACCQyAUSReYf2nc/3l7GCs6sunjsx49fC9MEcEu2ntaeydOXV426axAA4PT5S7hwZnqGXq/vBotK91E3F+vYuNj58+ZpQjQEYdTlF5QUX6muMQAAkH0DyiGciycQCSSKfb8cfWXdJyh7cP/eKqXcaLKUVxm8h5uhnXIRfXj7O2ol5F0AgLSMkx9s3W00wVebkZ4+e84clN91/3cT3B9t3ozpGgkkBGHMyDiiyy9Ac2uobwAAZJ+9eHdEP9ZjcGPKArEs++wFhPX8aROmJcdjvG4U8ibFMNEsXeOyyYlxoyIHL17zWWGJPvP/E9w7WJaNhT9dfkFGxhE8bZwYcmdfqDc2vfgiCcJ6zUszkxMh5+nEK0wTsGbJrLkrN2qztJ3YbEtNdYcgqM3KQna+yMjIiZMmtoQ1AEAhFTVXZzL/0JZVXJ8/bUKnY41AGdK/97iYKABA636MlhBsV343wY3GNHHS4/qyMo90bbaYAQC9AlTNR59/qThUEzh/2qPNH3VWzvjYEd0Dd3fwbsy14+Li9uzd7xEji9milMtCg/yaP310XPSo4Xc2z+94DkGa0TKA4PboPOp4L9wWuoO6jawPTKPRVFfX6PVl3O5xmiAa/jHUM6ahQX5w/Wz5Sss42fLD1p4cO3UOPw4NDsjnCKk4v3MT3QO3EQCg0WjKyjxjDQBwOhzDhvRt39x4PL5YJlT4HziiJUjIi5pfBGkuq4IipvvF4wnlPSpqSfyqQjUBRgKOs0uvLof70MGD+fn5aA42W4tqt8FgQNqH97MVyv2EUiVfIIy/f8yuNA9yDgCgsES/amOjE4fbslDuxxeKhw7st+vAUZyPmR7O6fRE18K9Yf2Hi19ciENZ9C1Td3snxhOIkCsSWszHxu5KO+qRwEM1AafPX3IjcFw38YG4ssqaoyxLUbG6j8nU6Edu73i8LN+FcC9ZtHjLp59CFZzHQ3aSoMDAVoYVHQl1ay8v6J+E8VPwCusVPO6eUS+tvWHewo2EaQJCgwO27DqIc2CCYRiaoh02h6n+sYS49Vt3AwCG9IcxEU9MmlxVVdWkcKfedBXcK5evOJCWBlm2QDBBBpXm4uJihmGuXrmSr7uoPXWq6NIlN0nAjQbbmCZDO8g6p5WkbCanxTjvqYdz8gpXbfqmea3kxNgDmady8m5YSBjaeT4vNyv7dNp//6i4biirMuD3camwcOa06Waz55WgeePtzekSuL/8YmvqTz8BAPoJRXuDNL0FAjSszZs26i5euFJSYjDUFF0qPPHH72dO5zgc0ImukkrLPa5pLU/oQMaf2Wdy6ww1tMOqkkujIwenZZwsKCl1q/FYAlREV2/agbnNll0HpyxYO+flDa9v3HH01DmVQjaOlbtRxcuXL78wb55bI5112/lwHz1y5IP33gMA+PMFXwcEBvL5OXYbGq7ZbFEpFSgMKiwkCABQVVmpzToFAOgRFKQ701rsmduEy6oMr2/cMeflDfdOeSnykefunfJSTl4hfG2sV4xbOEwTMH/ahLIqw/ovIQUAAKYlx4cGQzuiSiF7LCF29yerhvTvjR7dLRYDAI7/cXzl8hUop3P/72Q153xe3sIXFjAMI+Xxvg4IDBMI9lrMWlsj3AvmTJ3xxAS1SoHm8Mm2Hz/Z9iPR0KDXl/YMCDh2tmDmbG9nF6YJmJYczxVIVArZmiWzPBoIpyXHp2WcSss4OWr4wOTEOLVS/uuOdR57ekutXlhfX+J0pv7008BBA+c++6zHYj5ndqavsqKiIvl/JtTW1vJ5vM97BoyVSAEAz9cajlih1Qk5fBsIY8GlEqVSMWwIVGpeeOW9I8ezNSEh/fr1zz1zWrv/4/bOBDPl1lfagpLSKQvWAgB2f/I6pmVuX1t2Hdyy61BmUFAtTc+rq6ulaR6P98VXX46Pj+cW62C6M5nJi88/X1tbCwB4s4cfwhraVFlOEn/f6ImPjG8gjJNmL525+K3Jz6x4+vlXaqurZqQ8As3cBFF06ZLFbsfs1ftZRUcOQv9arzKkf+81L0H/0dyVG1tfk3vy+e/5+Ul5kBCXLFpcXd0ktLP1Xtp82mlwf7dr17mzUCd+VC6fKm9kF2aGNtJQXJv48Djof/n5yPJ/PYEk3Jy8wkVvbB45sJdKITObzQZDjUohK7/uSQNscxLeFUhOjHssIdZIml9au6X5eyVIS4hUglrqLxAsUkFjGUmSb65a7V3zXpXqHN5dU139/rp3AQB+fP7r6kYzk4WhDc7G0D0UTZmcdE9paamRNG9eNd9Imldt+iYn79L8aY8aTVDweiwhziPn9Woe3hVau2RWYUlpQXHpM69s/OrdJVw3RWFJqQZA/QBdiRJJplh8xm7/76+//v7bb2MfeMD1pEN/O4e6337rLaSPrerh78d6yp2AMVA3wvjQ8qiUioykZXD/8PGxI6An5a5BhSWl0x+Pnz/t0fnTHu1qrBFOX7+3dHD/cIQ4l8aNBAnYHyKGc7lKJWMVtNdffc1qteL8jiQ6Ae7zeXm/HPoZABAlFk+QyaDWBkCN04l1dwAAcn6jQAYsq2G67sgEWqorlKkFEmXzp2qlfPOq5wEABcWlhSXs7h62UOHf5VEiEbd8IJ8/lY3IqCgv3/q5B5WVW9jLdCfA/c4auOIDAN7q4Y8SDTTlcGnYUawk27ifg2FCOY7z6MhB05I7c91HvQMAYJCxSCKQyABLnjgfJfDPaDCruEPoWeVIw/4uuYWnyOWBrI721dYvkRmZ+9SHdEfh/vPEidM5OQCACTL5UJY6bAxj5LARRDL7fj4CA90BCNMEcCU2Lvf0YfQtVSmvqWcY2mGqb+6KAwAg2XFc7AjcO1JoQ1zaL25WDMBcBVz2zWbz51u24HyfEx2F+8MP4E4AMY/3co/GFdLQNLI9jqXuguK/T+c1Ot271A0GACirMrz/2S4HWecWGISoeNWmb+au3BAaHDCd88NCL2CA0IPgkCiRDGTzd2zbXldX5zPQqGKH4D7711/n8/Kg8CeTB7O/RCNNUU0PSLlTKETTePej7UbrjcWzg+NupXp5lSEnr4Awktwyx7Jy567cOGXB2rSMk9OS43d/8jr3R3b6XP4AoVDpifMAABAHt9ls3+3cyW3Th7SH9+l9K/v3NToeU1hBmwGAoKnm1Z9XKpfW1+cXXflw6+63Fv6TW4Agzb9p86AVycXruU99S0O/DGme+uJaZJw6ff5SQQmUPllZM5YrApVVGYwmc2hwQOHf5ZPYRd5jj/dKJEo+n6TpvXv2vvDiix7LeJnpuxJPUdTof9zd0NDQTyj6NVgDYyppqoHDtbkj+MBoTGdlqeioIcufTUFqdE7eJaRx5B9PdRg7U8FBGjkyQg3u3ztUEzA+dgTy/6JRlVUZPv/uUE5u4a871qVlnFy16ZvlKtWDUmh18Hh9SpL7LNAUkfbzoWHDhnks402m79T9x++/NzTA0KfJrLREt0DaaBArWCUt3WrNyS2YsmCtSilXK2RImV4wZyqPxwc8vs8EvmXXwTBN4AMxUXjpQ4K8x/nn5F06cASaqwAAX7+3FK6cZ6FvD0lQHqsAAB6SShHcB/andQRu36l78YsLDx08yOfxTmp6+cPfGlXXAmnjOWAaxznx943+9N2VAACHqb75yoaLuSXYMG0odKJacP/Hyg2FJXrou9EEhrIeHG6VUXcNCtUErN70DeYqAAAUk1VWZXh49qsDhMIv/BulWG5Fbnp+XV2R0xkYFHgqO5vXApfnlveY9pG6TSYT2i72gETqzy6SpqYqmcfOVqhUMxSKvWbzn3Z7FQW5PN4qyeMLvIcbSdOUzcRQjoKS0iH9e3/93tIPtu4+kHnKo/lpXOyI6cnxyCCOBobj3w5kQjJ3U3A8Dv5hmazIaKyprtFmZcXExnos02amj5LJmdOnbawV+wGW39kZxu7dWhfC5z+vVO7q2RONDG/p5bFbTtscLiqAtFPKbt25/8jclRtRdM7aJbMOb183LTkeKy+4NbROYn/C4e3rcPxb2q8nAACTWH6Iy3tMjGElWuR88FjAm0wfqVt3sdHzMkwE3R8mTwJJ691rBIIqijpyXLtgzlSoBwqaKNCo7tFT57jr240GGYayWwFDT388vqCkdPWmbzavmo90qJefg1tAsC5jNJkLS0oH9+89uH/44e3rsD6JyqRlnCw31EeJxSHN9ElUgPu/hs9H8onu4gVufrvSPlL3RRZuEY83mNUkzd6RNndk6PebX3QVhcfDKIZmDDEt81Rz3yNqhLI2huCsXTKLIM1TXlyL/QyoADKCj48dMX/ao+NZBdINa4I0f8D64FsRAbkDBgAMZfWd3HO5bvne3/oId74OruaDRRBsO9ww3e6zH++RNBqXM49no+E2J/DpyfEvrfFgm3ab3pols8oqa+au3DDlxbUfbN19LCv39PlLp89fQgY/gjRzb3HdLbsOGU2WKLH4HheXwI9aSgxi4SYIoqKioqUyref7wkysVuvVK3B3zHCWk1jaT9oAgHvEYsRP9h8+hra884USqunupujIQb2CoUSBeEVLMwnTBHz9/tK5L28oKIa27J37PURUqRSyw9tv+CcLSkqRn3M+axJpqWW3/IEuk6Hu4sVevXq5PfXm1hfqvnD+PGp6ONu91QuZxONQkDCeX3QF8ROBWNqcn6xZMisnrxDHgXhshw3K6b37k1WPJcQiFzu32OD+4dOS4w9vX4elcjYOAkakxEkkd3qyk3Crc9OIugEAFy+0I2iA24Iv1I0jK8MFQhoyk8ZoJm673qSjRKIosTjXbv9k24/vvgaVY75QQjuaGPLR7oLFa7aEBgdgccJj42GagLVLZqFHiON7dAEDALbsOlhQDMNRWjKSeGwfABDM5/N5PJphyn2NvvOFunEgnYLP8xlrNKUkloOjjY5oh1nzqY6PHbHmpZmrNn2Do1Wbl3HLGdK/d0tYHz11bsuuQ6h8utX633a6aeTseo4RcOu3zVuf4Hadf6Pk8e3tXyS5Y8pjQ6gAAJ9s+5F1Cwj4YugPcruSE+OmJce3C3G3FtBtWsbJxWuamK3XG43tQhzBTZI+hib7AjfuTMHnOXyFu5KmlzY04KnuO3wMOdgEEjmP74HFvfzclMcSYldt+uaDrbu5PkaPsDbPJEjz4jVbUBAhXyQOTpgi7zsEFVtvNG7xOvBVwVI36SK45h21nuML3PinxFJ3uxk3yTBbTKbpBkOuvUm49yvvfEwYTfBMI5mHHToAgLVLZq3415Sd+49MbSZltzJJgjRv2XXo4TmvocBikbpncOJUkV+g/6jx6ohoVHGP2fwGQZBekM5NYCY4QFTO4zm9GCIXi3SbdXpt7R5XiKkkKNQ/erwkKBS6Wi5fnblwdVnFdb5AKJB6Rnz64/Ffv7cU2aTmrtx4LKs1jaOgpPSDrbsfnvPall0HsR7PiCXk1QLGAePoVBHR/tGNp6b8abMtq69vE3FE3Wavfw3cuQMAPPxs3Uo0v5W4NBQrezxl8wIec3Idji0kednZ6NCRBIWqI6LFQWEAAFlov+rf0xz1NflFV+KfmDfxkfEJ941+YEwkVh1RgwcyTx09dc5osgwZcEdBSWlOXmFOXmGYJmBU5OBo1uYHA7JMloLi0vLrhpwzF8troX3Y7XLWVJA1FbaKq8HxTwAA5H0gS6nLgXsYLjudy+rrl6lUrUiHKG5G6BLA3Rpv89YXuANdUfEVTqcHS0ezPiH3IEnMpkU9AvxG3IuARmV5IknQ2GSEOAAg80TOvl/g/Af3CVNJxNHR8IC1wpJSxA3cmi+rMpRlnGxJaFE0tVYOEYnVfF62zeaoq67NP+03MIovFLkh/iZBfO7v35KMWMsqGUFBMHzXh8s3uBs7u07RYW0x/70Wy3/MZpIdJV8kVkWMVg6MbD5QnkiiHB5Tn/VfxukID++9ZesXGenpRoLQZmX9VXy9tLiknI3Vm6FUDRWJMi2WbLsNhcOhppR8/signkX1BEMzveSyQb2CBt/ZO2bcmH3f/fzVGWhRipfKXu3hF8762r8xkesa6u2V1xpkKkVwqFiukvcZIuoRWPN7Gu2wVVLUZySJVLDm46xjJ4IJrnmB1nN8gTvARd0GmgrjN4bKN++mkqbXG414PZSG9u0ZHc8TNZpKcHmGpuwmo6WumnI6xAOjHPrL+Trdu2vXrnz11ZBevRYuXow2mE578qmJcsVraniixiR2O0Sm1Zpptewzw900JE2TNvtbc1NiJ4xFLTdU1y1ctO5sPREqFL7n5z9GDPu1MgzFMPFS6boGwFhImqaMlaWyHj3lASEiv8DAsckI8XSr1SPcrDMWigaBQa3tesFTa57wBW78bqspCgg9wE0yzF6LZa8FTgjqiiKxf3S8NNR9byTtdNiM9daGWtplv+XJlOKBI+iGmpzsnEcf+Z/EpMSHHnrorsi7UCjLRNYq7QSMkzWI3S+RJEilC1TqT4zEPrPpbD3x3GffKT//YaAaBk8VGU0kRS1QqWcqVWoezwmYSqcDB3ZBbdbc6Kq3NNQ6rGaVprfIL1DedzBZBGMLPF4GdjoQbhfBeSzWSqZPcLveLe6e28F/rdYtJhMCGgDgkagpu9XSUGsz1nMr4jS/R6BZ6Scx1hw+/Ou+vfuUSqVCCWNr1Dy+iaZrm8axyPj8N3r0mKlQfmwkjljhC75Omu8UChUAkAAkSGVqpAfSNMYa7hhqauB22qwN+hJ5gIbP/vha8lsiTsLC3Y28Ozi48axbtG5gmAAAf9rt6403NK4eUfe6cWq72WhtqHVY2tpPJxDa/EKAKlB4XW+pKSdJSIlDRaLrTbEGAFhoSHJDRaLPegboKSq+quJocIiJpnUO23SD4YU6w2ixZLRE8nBTL3vzgCmapsjqcoaA8ekt+dLwfLuVmYjFYqVSSZJknYsJYMSx+CGUq3rGPSzya+RxXAaNC7edEAiFvfqC4HCgv0wZKlsqLwS8TKv1G5Mxm/XnlVKUgKGQg2a0WLLOz9/OMPVtua1R47x6eOAbivxq3h2Hun3k3W0JFs37ZHN6BsCtREUuIRqXwvITF2tLXXX9tctkdTnlCvfG5b1KCISCgBC4YNptQk4INq5roql/iIRf9gzc5B/QSyDIsJgohvmTVVnLKOd1p6PaacchoriWx4SVbNAIBC3J3Vhp8FkQ9BHuYcNhaMs1p7OcdajjoeOfobUc+h/Q5bCa8WLoymvfX76yMQAR7YhtXtlEU9VO+11CfgVFfUqS8+rq3mBjYPQUlWW3V7qWOFzxstMZIHcPR6YbIGnjKeDCOKFlX6G/v3+vUKgG+3D5slRCMTYh4fDPv7Bbb+yPc8K98CJj/rtQ5bJIiKTytpl1W2P3k8gyrJYhSs/KPar9H9Y2QNK00d9/6exZwGjc+d33L9fDOEoln49CFeEqyuOdtNlEffq5CVU0u3Rjr57biPQUVcHS1vj4+O6OM4lnu2QYRmtvAncIn488Bk4TYf67AClsAnYLmtvo233rH6Q1VLyk9PwhBay4JsbFLnvzDdx43INJ+/btz8vNy8vLq2AYeXDocRN5vR4GyDH2Jn4MmFNfo+DzW3JdItIGAIxP8D0m3UfqVqnVo6Kjc7Kzcx0OOwAw+MF1JUkkSLWxll1BcIukjSebuYr48tfiH3yp8lqh0xF0YwNNYzuVNP1mQwNirGaXhBekCWEACNKA2bNnFRYWPj//hYR3PrVLoTGdqK469u93HBVXeWIpWhUQ+pTdek9TAYY70GyWk4jF4o7s0/GRd8OXzG44tDPM2aZ2VPxjtJRfQYY3Hl8gEHpjXOHOzj3NkymVIvEOU5MwYgDAXotlXl0dAcDjj0zsI5P9eeLPkydPiiUSdY8ejyQmLl28uE//AUJWmkZYQ/k9SJO4/G2BVM5YbrSGOElLjNvKMMgTMiY2RtryK3EfdLP7DsDt+k2h145bVvJ4cS6TocW1YApljVv/cDEfEpRfUK7djlbLy04nNJrX1n5Gknf6B4xd9aHwoUnR/4SbfDd8uLHWYKAoavHSpSlTYcwQ0pK4PVqJBtpph1Km60LrJKYVV3bj37MOB3KkxCckuD1q162PzAQAMGDAgN69e5eWlp60291inh+USk+yIjDmJ0KxtHGjtjejMxFA4YFH05reldVlTxkMJMNgrfWhUbHKGc83hrlERSdERGbq8vbt29+nX78nWKxRh8qmJtOsnVuFYXcCHClHORljfZxEggVZt2Fikkp68EG3R+269Z26AQAJ7DG11RSV48ZPxGJk+bxB3V6vlpSh0lr4l1jhQQLhiaXCXn0rKYqkaRRT+Oj9icoZcBsZvvynzlGIRPv37S8rvbGrDABwR88bZ5cWa09YG2ox14YH+NbX0JSzpUXSxDBHWeoZGjEUa9S4x3YlOgT3jFkzBaxJc6vJ5OZDe9DFT5AALvR6tUQCgzIoVOjpDQl79ZVG3SuNupcHQGRgkCRlhttsGf+AuLtjSZL86aefiIaGu4YM2bRhg16vp1m8UOG8vTuF4U2OGaNqocraEifZaTaj+N7pT7t359Z7m7cdgrt3795TnoTM8YrTeYQzHwBAkms9sVU3Hvfl/WopVKh4fIGC1SQ9TEAgdPxdQFPOQY832XeCS/b457NBCuX+ffsb6uvmPPtsTGysvqTEz7Vv/OR/vgByFdabkExCG+tHyGQeOUkNTaNA+n79+z0xtTHeE/fV3kSH4AYALFq8GPnStplM3H1OdwqFGpbwbdXlaEzeS98CuQdOgifG2K0UKyDThAffGCo2bMAgkiQPHTw0b/782Lg4ymCQ+UNmQlSWV54/I3IjbdYak9hCONXXJhPyx65YuZLvkjLxYNqb6CjcgUFBc9lDP6opClEBHgHa6uJgjT7QKypucecLrgJDTbwoxhMITTS9d/eOi68voE94iAgMmjxDIZHs3Lmz1gD1cm3OaUG/gQCAE9s/FQSF3Vgh2Y5b4SRXKAr9aocNH94pB3x3FG54iu7z8/38oE0D8jiOYx7b1ewsP/GSunkSKTI6c98BN80TS0V9h6C3kk80eASd8Q+ICO1dVVmlzdJazGZjQwMIvUN39Fe4QgY3+ewZTdYzNusYibQ5JyEZZqPRiIJ733jrTe4YfE53AtxyufyFhVAUNNH0966IBgDAnUKhjMNPvOfd2Gzb0qz4PQIlw2NEfZqAfuWNRc5f9+EqfSdOAwDsYgm8jCBkvfvmH9otYv3uuAyUSVhO8ojraI1Kmt5rsSxtaEiorn68piafDfKSyWRX2IhfbkXf0oI33+yE9zZ8+PA9qakkSRY4naPE4kAXjzvD7sHhiySy3gP5AqGlru2jWBi7VcgXSILCkGutlVnx5UphcDhPLIXKIeWssFoKivJrMg/J8nOVIeFM3zudZ07pSoqdTqejrDIn6ziQq7nCH1okHX8XSPn8lSpVus36mcm0hSRzXPuGcNdOpzMzPUOlVo8cORJn+sb+1cwAAApkSURBVJbwfeeZW3/ZWu3T/5xGUZQfn/+Fv38Ai/h/zOb/mEwiv8DgBLim118ratPkTZP1YobuEXWv02puKL/q1ktLt5ShkqrW0y73IwAgQqlUq/2yyqH07SeWNFCUZHiMG9d2lFyg6muQZ6eyqSV5UsrkWXPmREREaLOyVixbVqYvU6vVB375uYMfDOgc6ob7YsLD/Xv6/3bsmJVhzjkcSTKZAACSYX6z2WirGYWH2c0k3YKHwV50jieRIlKlGwzyvkPapG4u9Hy5UhAYyhMKGZsZsI6bartdb2z8qICVooQhdzA2M03U0mQ9Va2nasodfxcwVriVGOqoriUnLDxsckrK5o8/npySgnwI4eHhk1NSDh08WMN+2ef+sY2efm7v3qd9V+Kb9zH96acv5J1P/emny07nB0bj6yoVXn8c9TUiv0ChWNKS4Zuv9LNfOicMDmfsVr5r8o1dUE6atSUhKxJjIRmXJwymm3mUmg8MHulb0doPRaVWsR9theTcvLparZ41Z847b6/JTM94fXWHzkrqNGaCRulwOJ6aMvXc2bMAgGcUiifl8gQ2HCdobLI4KMxSV21uiX1TTmsu3HOHLnFACPtJKIKxuVulXUU67W9kZOTGf2/u268xLoMgiOwsbam+NCIiAn8ylyCIf0TCE+y3bP2iIxJhZ1I3AEAkEn3x5dbH/mdCVVXV1yZTf6FQwYfRCrbqcnFQGN+jGZZyOvSXabJJEIS9qSO4V3DwHf37hYXDC340m/PhYJVajUhSp9PhE150Ol1ZaelfZ/7Ky8sTKlTioDAhqzqRRXm0wzYmZsyuH34AAKxYtmxv6p6Jkx7XaNg9/exHdz/avHnWnNkLFy/mfhNarVaPHjMmW6vNSE+/heAGAAQEBm79+qvkCY8yAKwliF4CQbHLVShgt05xyVIgFPGddpovEIcN4PH5fL7AQdTaKq+NiRkzJiZmaEREWHi4xx84txGU5hYbExNTVnrtqaeefDDpIXmfIdiNZ6sus1WX43O6J6ek7E3dU1xcYrGYHU7n/H/9Kyw8/LcTxz2uhyNHjszWajPTM5p37X1OJ1M36njY8OEb/715yaLFZoYpYVd8rFu6jYxyOvgq/4D+w7iEX5H21aw5czpCRLiXyMjIEssN068kKMxWXY7P6R4TEzNw0KC83Dynw9EzIHDXDz8gTrI3dY9arR4aETE0Yiim8REj4fcZCDZskfvzwn15k+gENcdjN48lJ6/fsEEgEKDYJZqNp+Ziims5LKa6a0X114qIir/Nhkqo+Cn9zh/xoJrjKt4knK5tKPhNO61mvNcCfWgXyosRQ6uuV6Fjf9EnFXW6iwAwBAGPSs3X6fAxzHePuhv125EPkHQJdaNhTZw8qVdor7mzZqPd8+zGshZdaJTTQTkdSG6hnPaCK60JEl7BzUosGo2muLyKqPibdtgppwOdhwUPUHJ9cismLi5tf5qVPasEANDKh6EsZnNUVFRubm5H4O4q6kaIxMTGIgsttgt6gxRfpqxn41q9Kdx6GU2Ihs/jOSwmpF5h+xeG7I477kBni1Ms09Pr9ZnpGTu2bddmabkfLqIoymqx3BV5V+vdtfm0C6kb9X1Hnz5tDsK9gED4l6/7RN2banqP4cYsIowVdUjSZLfZZHJ5vk6Hvi+CjrnWZp1KSEqKiIgwsUGKqDGV2oNjr2k/Ld51OdxcgaHFUTR9gEAhCAIvU02ft+9OwOc1nozKqYe/2YKEkKqqKgv7naR72QueHSeRIEcVqoTgRv/7MCPcc5fDjXvyPsFj3Wb5Op3PAgAMdJbJEEeWisVcTQnaCezWfF0+RVFGgjCyPoqqqqo6g6EOtHEeVl4e3J0+1JPm6eXsupZ3cwdhry6Dh5B4cSHqxsKDFzVaK2Ju6vRB75IgiKvFlw3V1+1NfX6tNJSbm1dcXIzU/VaKtf6oW6mbcek7rY8JwV2mb+JKb71KS08jIyN3frvToxupqrJKE6IpLi6GH6vMyDifl8fj8xmarqyqqqps/LjI9KenP/30dHSy9BeffwE/GtOxb+R2H9zk5TxJ36Et4eKWL1SqsfDg9qiDt3i1XLNmrclkKi+HrtSqyhsQR0ZGTp8+PSoyUhMCNXuSJE+dOvXttzurKqtUalUHTVRdDjfmdJayK5ayK4KAEGGvvnjOLWFH8/jog6EtFfA5H3ddVFSUkJS4aMlL4eHhaJHQZmVNe/KpvLw8k8mUmQGV9eLiErRxAu55Vat2/fBDB1fvTrYIekQBWYK4j9oE3am/7Lyuv3z1RpA4t7o36bLSa2ipfDDpIfGA4QzlZGxW6Jl02WwXLl6EtrVxW8tIT9dmZWG5BT0aypoGx8TEdBBr6PjmbhDidty56T2pqTu2bUNHKuGWWwHdWXHVWXG1JWsRbqGVBBfu5sXCwsN2/fCDR1NU88KdmNNNksnklJSDv/xy4JefJ6VMxqOnDJW2C1mOkgsoHBLnQ3VfBV37HVkt2WOybjQ5eMiQRx97DN1PSpn8+4kT3Y81nNeNEXV9KiIi4oMPP/ztxPEmoNfX2Isv2M+fhJ7Daj00fFNOFALYkdUSb1tXKBSbP9r80UebFyx4flQ0POLhpgCN0O1WuFGX4eHhCPRZc2ar1I0BU9CEVF/jKL1sv3TOmnvCln8abo7vmHEZdTdgwABMSCGssIFvuz9xE+BGkwwPD3999erfT5x4/8P1CUmJHmeu49g/PRbwMjMvt3EjcNQI6ADDBhMvq3disS4XBFsfq1qtnpySMjklhSCIfB28kANMr9fvTd2DdsP7plnIZHKslOOdS337wPj57G75RrnHid9kuPGY1Gr1mJgYbCTpONy4ZW7ijjvgp+SwN4f7qHvSN42ZtD698PDwoRFQBfWZEvFSCQBg93E3djh4CDwvpiOLcOsjb/3pLQo3tk7odDrfbFVYEFQoFVzdQsUe3H4bbneyQDtROkKJQjZke8CAAcgOhToIC/Nxw6/7+Hy6v3WpOwJGPcCTqnymRMxPSNdXRs78dbai3MfTcn2C173SrbJUuo+LvR8TE7M3dY/P7FsikSKzSdHlojlznuHqqJNSUjz22NWZty51Y/atZy8fgBCKIDFpNBrSSGKsWWvJ9zdLsbylqTsxKUmlVhkJozYrK7z99ChhnXAoIA0A8P6H68fExNwsoBG53NLUjQkcfVbDewJ3OBw1169XlsNNbwMG9EcVJ6ek3Fysu9tE5T1euCRSKbOztB9t/jc38AMXcEtYzObK8rJrV0oa6uuQuG3y9bxWt5Y75bab7N0dGevIyEgcRInCX8PDw8NcLhgAwKjoUXabzWIxm0gyX6czmUwm0lRcXFxcUlJcXIwcjyq16vcTJzruH+jIRHw8lLSDXba3+uSUlB3btuNa2ixfTB6vr15907HuPm8OBsu3hE6n02ZlZaan6/X6Mn3jNmRvmhoaMXRoRATaZeNN+a4u83+AmTSHABsO3ZQgbOFyC7lv3sLNyvk/CffNAqvj/d7qgmDHZ3hLtXAb7m59Hbfhvg13tyLQrZ3dpu7bcHcrAt3a2W3q7la4/xdlCwY3BN1QMQAAAABJRU5ErkJggg==;" vertex="1" parent="1">
                    <mxGeometry x="89.99586120605468" y="578.9992352294921" width="122" height="136" as="geometry"/>
                </mxCell>
                <mxCell id="110" style="edgeStyle=orthogonalEdgeStyle;curved=1;rounded=0;orthogonalLoop=1;jettySize=auto;html=1;exitX=1;exitY=0.5;exitDx=0;exitDy=0;startArrow=none;startFill=0;endArrow=block;endFill=1;" edge="1" parent="1" source="61" target="57">
                    <mxGeometry relative="1" as="geometry"/>
                </mxCell>
                <mxCell id="61" value="&lt;meta http-equiv=&quot;content-type&quot; content=&quot;text/html; charset=utf-8&quot;&gt;&lt;img src=&quot;data:image/jpeg;base64,/9j/4AAQSkZJRgABAQAAAQABAAD/2wCEAAkGBw0SDRAPDRAQDw4QERAQDQ0SEBASFQ0QFxIWFhUSFRYYHCggGB4lGxUTITEhJSkrLjouFx8zODMtNygtLisBCgoKDg0OGhAQGy4lHyYtLS8tNTUyMC0vKy0rLS0tLS8vKy8tLS8tKy0rLSstLS0tLS0tLS0tKy0tLSstLS0tLf/AABEIAOAA4QMBEQACEQEDEQH/xAAcAAEBAAMBAQEBAAAAAAAAAAAAAQUGBwQDAgj/xABKEAACAQEDBAoMDAYDAQAAAAAAAQIDBAURITFRkQYHEhMVQWFxgdEWIjIzUlRikpOxwdIXIzVCU3JzgqGjs8I0dKKy4fAUJMND/8QAGgEBAQADAQEAAAAAAAAAAAAAAAEDBAUGAv/EADgRAQABAgIFCgUFAAEFAAAAAAABAgMEERIUITFRBTNBYXGBkaGx0RMVIjLwNFJiweEjJEJT0vH/2gAMAwEAAhEDEQA/AO4gAAAAAAAAPnXrQhFzqSjCEVjKcmoqK0tvMWImZyhJmIjOWp3rthWOm3GzxnaJL5y+Lhj9ZrF9CaNujB1z92xq14yiPt2tYtu2BeE8d73qguLcw3Ul0zxT1GxTg7cb9rWqxdyd2xh7RskvGfdWqv8Adm6f9mBmizbjdTDFN65O+qXjqW+0S7qtWlz1aj9bPrQpjoh8adXGXwdWTzyk+llygzkVaazSkuaTQygzl9qd52qPcWivH6taovUz5minhD606uM+L32bZXedPubVVf19zU/vTMc2Lc9D7i/cjpZuw7ZFsjkr0qVaOmO6py15V+CMNWDondOTNTjKo3xm2259m9312ouboVHkUK2EU3yTx3PRinyGtXhq6ets0YmirqbKa7YAAAAAAAAAAAAAAAAAABj78valZbPKtWzLJCCz1JvNFan0JsyW7c3KtGGO5ci3TpS5Bft+2m11N1Xl2ieNOjHuKfMuN+U8vRkOvatU24yhybl2q5OdTGGRjQggAKgEIAUAhBArZdi2zC0WSUadRyrWXInSbxlSWmm3m+rm5s5r3rFNe2Nktizfqo2Tth12x2qnVpQq0ZKdOaUoSXGvZzHMqpmmcpdKmYqjOH2IoAAAAAAAAAAAAAAAA5ZtmW+U7bGjj2lCEe18ufbN+buPx0nUwdGVGlxczGVZ15cGntm21HR9iWwijvMK9ti6lSaUoUG2o04vKt0l3UsM6eTiwyYnOv4qc9Gh0bGFjLSrZ237DbtqwcVQjSlh2tSl2ji9OTI+lMwU4m5TO/Nmqw1uqMssnKb8uqpZbTOhUyuODjNLBVIPuZJcXNpTOpbuRXTpQ5ly3NFWjLHn2+EIAUAhACoBCK3zatviUa07HN9pUTqUU33NRd1Fc8cv3XpNPF284023hK8p0XTTQb4AAAAAAAAAAAAAAAA4/tg/KlfmpfpROtheahycVzstcxXGsVxrStBsNd/QFGpGUYzg04ySlGSzOLWKa6DhTGU5S7sTm/ZFcs206sHbqcY93ChFTejGcmov1/eOlg4nQntc3GTGnHY0w22oBQCEAKgEIoBmdhcmr0sjWffMOhwkn+DZiv8ANyy2Och3A5LqgAAAAAAAAAAAAAAADj+2F8qVual+lE62F5qHKxXOy1s2Gs2vYvs2q2WCo1oOtQj3GEsJ0loWOSS0J4YacMEat7DRXOcbJbVnEzRGjO2Gat+2VT3DVms898eaVVxUYvThFty5sUYacFOf1SzVY2Mvphz612mpVqTq1ZOdSbcpyfG/Zow5DeiIpjKGjMzVOcviUAIQAqAQigEAzWwz5Tsn2v7WYb/Nyy2Och3A5TqgAAAAAAAAAAAAAAADj+2H8qVvq0v04nWwvNQ5WK52Wtmw10AhACgEIAVAIRQCACDM7DPlSyfa/tZiv83LLZ5yHcTlOqAAAAAAAAAAAAAAAAMFemxOw2itKtXhKVSSipNVJxWRYLInoRmoxFdEZQw14eiuc5h5ewK6/o5+mq9Z963d4vjVLXDzTsBuv6OfpqvWNbu8TVLXDzOwG6/op+mq9Y1q7xXVbXDzOwG6/op+mq9Y1q7xNVtcPM7Abr+in6ar1k1q5xNVt8DsBuv6KfpqvWNaucTVbfDzcmt9OMK9WEckYVakYrPhFTaX4I6VM50xLnVRlVMPOVACACCBWZ2F/Klk+1/azFe5uWWxzkO5HKdQAAAAAAAAAAMFf+yuyWXGE5OpW+gp4Nr6zzR4s+XkZntYeu5tjcwXcRRb2TvaVbtsS2yb3mFKjHiyOpJfeeC/pNynB0RvnNp1Yyud0ZMd2a3r4z0bzZ8n9Bk1a1w9WPWbvH0Ts1vXxn8mz+4NWtcPU1m7x9Ds2vXxn8mz+4NWtcPVdZu8fROza9fGfybP7hNWtcPU1m7x9Ds2vbxn8mz+4NWtcPU1m7x9Ds3vbxn8mz+4NWtcPVdZu8fROze9vGfybP7g1a1w9TWbvH0Oze9vGfybP7g1a1w9TWbvH0Oze9vGfybP7hNWtcPU1i7x9E7N728Z/Js/uDVrXD1XWLvH0YCtUlKUpyeMpScpPIsZN4t5OVmaIy2MMzntfgCACCBUAzWwz5Usn2v7WYr3Nyy2ech2i8m1Rlhk7nL0o81ypVNOFqmJy3esO1h4zuQwu+y8KWtnlfjXP3T4y6OjTwTfZeFLWx8a5+6fGV0KeCxtFRZpyXSz6pxV6ic6a58ZSbdM74e2zXq81VYrwksq50dXC8s1ROjejOOMb++Pbwa1zCxvoZaEk0mninmZ6GiumumKqZziWlMTE5Sp9IAANM2dbK3Qxs1mf/YksatRf/CLWRLymtSy8aNzDYfT+qrd6tPE4jQ+mnf6OYSk222222223i23nbfGzpuahBAAVAIQAoBCAFQCEUAgAggVAAGZ2F/Klk+1/azFf5uWWzzkO0Xp3mXPH+5HmeVv0tXd6w7eG5yGDPIukgVAAHsu22biW5k+0efyXpOnybjpsV6FU/TPlPH38WDEWdOM43s6escwAx9/XnGzWWrXll3Ee0j4c3kjHW10YmS1Rp1RSx3a9CmanELRWnOcqlSTlOcnKcn86TeLZ2oiIjKHGmZmc5fMIgAKgEIAUAhACoBCKAQAQQKgACEGa2F/Klk+1/azFe5uWWzzkO0Xp3mXPH+5HmuVv0tXd6w7eG5yGCPIumgACBUIM9dVfdU8Hnj2r5VxP/dB63krEfFsZTvp2e351OZibejXnHS9p02u53tq3h21CzJ5EnXqLlywh/6fgdDBUb6u5oY2vdT3tAN5oIACoBCAFAIQAqAQigEAEECoAAhACtg2AUXO9rNgskXUnJ6EqcsuvBdJhvzlbllsRnch2G9e8y54+tHmuVp/6Wru9YdrDc5DBHknTAIFQgBXuuarhV3PFJNdKyr2nW5Gu6GI0P3R5xt92ri6c6M+DOnqnNca2dWnfLztDxxUHGnHkUYJNedujr4anK1DkYmrO7LAGdgAqAQgBQCEAKgEIoBABBAqAAIQAqAdH2profxttmsjTo0HpWKdSS6VFY8kjSxVe6luYWjfU3a+qnaRjpePQl/lHmeW7mVqmjjPlH+zDr4Sn6plhzzTfQKEECoB9bLPCpB6JR1Y5TPha9C/RV1w+LlOdEx1NnPcuM4PfFTdWu0S8KvWlrqSZ3LeyiOyHEr++e2XjPp8oBCAFAIQAqAQigEAEECoAAhACoBsmxPYhXtkozmpUrJjjKs1g6i8Gnjn+tmXLhgYLt6KNnSzWrM17eh2SyWanSpwpUoqFOEVGEVmjFHOmc5zl0YiIjKGEvC0buo2u5WSPNpPGcoYn496ao3Rsj37/TJ1rFvQoyne8xpMwQQKgAKmJM5jbA2jfke7+NDi6EuCWmWNSb0yk/xZ6ONzgTvl8iohACgEIAVAMhdVx2y0/wANRnUjjg6mSMFp7eWC6M5jruU0fdLJRbqr+2Gy2ba1trXxtahT5Fu5vpyJfiYJxdHREs8YSrpmHo+DCr43D0MvfPnXI4PrU54+R8GFXxuHoZe+TXI4Gpzx8j4MKvjcPQy98a5HA1SePknwX1fG4ehl741yOBqk8fI+C+r43D0MvfGuRwNUnj5HwXVfG4ehl741uOC6pPHyT4LqvjcPQy98a3HA1SePk+1Daty/G2zFcahQwetzfqJOL4QsYTjLYLq2CXbQak6brzWaVZqaX3ElH8DDXiK6uplpw9FPW2VtJZcEl0JI16qopjOqcobERnshibwvDdJwp9z86Xhci5DznKHKcXIm1a3dM8eqOr17G9Yw+j9VW9jTiNwIIFQAFQCMkqzG+HpviS5+i4ralhUmtE5L+pnuKd0PK1b5fEIBQCEAKgG87Bthka0Y2q2J7y8tChm35eHPydC4+bPp4jEaP00725Yw+lGlVudNpwjGKjFKMYrCMUklFLiS4jnzPTLfiOiHmrXhTWRYyfJm1nLvcrWLeyn6p6t3j7Zs9OHrnfseaV6S4opc7b6jQr5buT9tMR5+zNGFp6ZfjhOpohqfWY/nWI4U+E+761WjrOFKmiGp9ZPnWI4U+E+5qtHWnClXRDU+sfOsRwp8J9zVaOs4Uq6IapdY+dYjhT4T7rqtHX+dycK1dENUusfOsRwp8J9zVaOv87jhWrohql1j51iOFPhPuapR1/nccK1dENUusfOsRwp8J9zVKOv87n4nelV5tyuZdZ8VcsYmd2Udke8y+owtuHlq15y7uTfPm1GhdxF27OdyqZ/OG5mpopp3Q+ZifYQQKgAKgEAjJKszvbPTfDlz9Jxu+ae5tdpj4Norx1VJI9tbnOiOyHl6/vntl4z6fIBCAFQDLbFbp/5VtpUX3vLOt9lHOultR+8Yr1ehRMstqjTriHcO1jHijGKyJZFFI41dcUxNVU7IdaIz2Qw9rtbm8FkhxLTys8njsfXiJyjZTw49ro2rUUR1vMc9mQCAAqAQKEECgEAgUIIFQABAqACKmGORceQZTVsg3Nr3pHvfhUuHpy43s7s293paFhgpuNSPKpQTb87dajtYec7cOPiIyuSwJnYUIAVAIRXRdqSyLC013nxhRi9GCcpa8YajRxlW6G7g6d8t1vWrglBceV8y/wB/A8vyzfmmim1HTtnsj/fR18NRnM1MWecbqAQAFQCBQggUAgECgEIqAAIFQARUA+1hhuq0F5SfQsr9RtYK38TEUU9ceW3+mO9Vo25nqbSe3cVzbbXsOFSz2lLJKLozehxblDWnU806GDq2TT3tDGU7Yq7mgm40gKgEIoB1TanX/QrfzU/0qRz8Z98dnu6GE+ye3+oZ29JfG8yS9vtPFcr1Z4nsiPf+3aw0fQ8Zy2dAAVAIFCCBQCAQKAQioAAgVABFQCAZS4aOM5T4orBc7/x6zt8iWdK5VcndEZd8/wCerTxteVMU8WcPTOaxOyq6f+VYqtFYb5hu6LfFUjljl4scz5JMy2bmhXEsV6jTomHDpJptNNNNpprBprOmjruSgEIoBAOq7U/8BV/mp/pUjnYv747Pd0MJ9k9vszd5d9fMvUeJ5V/VVd3o7eH5uHkOazAVAAVCAFQCAQKAQioAAgVABFQCAWKbaSyt5EtLLETVMRG83bZbPYbPvdNR488npk8/+8h7bBYaMPZijp6e382ONeufErmXoNpiAOa7YuxeUZSt1njjCWW1QS7iX0qWh8fLl421v4a9nGhPc0MTZynTjvaAbjUAIAIOq7U/8BV/mp/pUjn4v747Pd0MJ9k9vszd599fMvUeJ5V/VVd3o7eH5uHkOazoACoAIqAQCBQCEECgECoAIqAQAl/haRv2QrOXVd25+MqLt/mx8HlfKem5M5N+F/y3fu6I4f76ObicRpfTTuZQ7bSAAADRtkW17SqydSxSjQm8royT3qT8nDLDoTXIjbtYqY2VbWpcwsTtp2NLtexC86balZpzXFKm41E+Vbl460jai/bnpa02LkdDzdjl4+KWj0U+ovxaOMPn4VfBOxy8fFLR6KfUPi0cYX4VfB0razsVajYqsK9OdKbtE5KM4uLcd7prHB8WKeo0sTVFVUTHBu4amaaZiY6WSvPv0uZeo8Tyr+qq7vR2cPzcPIc5nAqEAKgEIPbwVV8nW+o63ybE/wAfGfZr61b6zgqt5Ot9Q+TYn+PjPsa3b604KreTrfUPk2J/j4z7Gt2+s4JreTrfUPk2J/j4z7LrdvrOCa3ka31E+TYn+PjPsa3b604JreRrfUPk2J/j4z7Gt2+s4IreR5z6h8mxP8fGfY1u31pwRW8jzn1D5Nif4+M+y65b6zgit5HnPqHyXE/x8Z9jXLfWnA9byPOfUPk2J/j4z7GuW+t9KdyT+fOK5sX68DNb5DuT99UR2bfZ81Y2nohkrJYKdPLFYy8J5X/g7GF5Ps4fbTGc8Z3/AOdzTu367m/c9RusIAAAAAAAAAAYS8+/S5l6jyXK36qru9HSw/Nw8hzmdABFQCARkncrM8L0vBnqj1np/ndj9tXl7ufqlfGPzuOGKXgz1R6x88sftq8vc1OvjH53HDFLwZ6o9Y+eWP21eXuanXxj87jhil4M9UesfPLH7avL3NTr4x+dycM0vBnqj1j55Y/bV5e5qdfGPzuOGaXg1NUesnzyx+2ry/8AY1KvjH53P3RvWnKSiozxk8Fio4esy2eV7N25FuKas57Pd814WummapmPzue86rWAAAAAAAAAAAAAAAAGDvTv0uZeo8lyt+qq7vR0sPzcPIc1nAqAQCBQCEECgECgEIr0Xf36n9Y3OT/1NHaxX+bqbMe1cYAAAAAAAAAAAAAAAAYO9O/S5o+o8lyt+qq7vR0sNzcPIc1nQKgECgEIIFALGLbSSxbeCWln1RRVXVFNMZzJMxEZyzFC54YfGNt8aWRI9HY5FtxT/wAszM9WyPf83OfXjKs/ph8bbdOEXKk28Mrg8uPMYMZyPFNM12ZnZ0e3syWsXnOVbEnAbz0Xf36n9ZG5yf8AqaO1iv8AN1NnPauMAAAAAAAAAAAAAAAAMHeq+OfKotajyfK0TGKnsh0sNzcPGcxsIBAAVCCBQCBXtufDf1jolhz4dWJ0uSNHWoz4Tl2//M2vis/hy2A9c5QBqdow3yeGbdSw5sXgeDv5Rdry3aU+su5bz0Yz4Q+l39+p/WRmwH6mjtfF/m6uxtB7ZxgAAAAAAAAAAAAAAABjr4oYxU183JL6uno9pxOWcNNVEXqejf2f5/bbwtzKdGelhzzbfAIFQggUAgUAtOo4yUo5GnimfVu5VbqiunfCVUxVGUs3Qvek12+MJceRtdGB6ezyzYqp/wCT6Z7Jn0/tzq8JXE/TtfK23vHctUsW38/DDDmx4zBjOWKNGabG+endl/r7tYSc862FPOOi91zUXKsnxQ7Z8+ZL/dB0+SLM3MRFXRTtn+vzqa2Lr0beXFsR65yQAAAAAAAAAAAAAAAAYmMxh7ddrWMqSxXHDjXNpPN47kmqmZrsxnHDpjs4x1b+1v2cTE7K2NZxG4hBAoBAoBCKAQCBX3sljqVH2qycc3mXXzG1hcHdxM5URs6Z6I9+xiu3qbcbWxWSzRpw3Medvjk9J67C4WjD29Cjv65cm7dm5VnL7myxgAAAAAAAAAAAAAAAAAA+FeyU591FY+Esj1mrfwdm/wDfTt47p8WSi7XRul4Ktz+BPokvauo5N3kP/wAdfj7x7NqnGfuh5p3ZWWZKXNJe3A0a+ScVTuiJ7J98maMVbnpfGVjrLPTl0LH1GvVgcTTvon19GSL1uemHzdnqeBPzJdRj1a9+yrwn2fXxKOMeKf8AHqeBPzJdRNXvfsq8J9l+JRxjxfpWWr9HPzWj6pwmIndRV4SnxaP3Q/cbtrv5jXO4r2menkzFVf8AZ5x7vicTajpeinctR91KMebGT9ht2+RL0/fVEefsxVY2iN0PbQuilHLLGb5c2pe06VnkfD29tX1T17vD3za9eLuVbtj3xSSwSwSzJcR1IiIjKGtM571KgAAAAAAAAA//2Q==&quot; alt=&quot;Python – Logos Download&quot;&gt;" style="text;whiteSpace=wrap;html=1;" vertex="1" parent="1">
                    <mxGeometry x="-196" y="614.75" width="69.33" height="67.5" as="geometry"/>
                </mxCell>
                <mxCell id="97" style="edgeStyle=orthogonalEdgeStyle;curved=1;rounded=0;orthogonalLoop=1;jettySize=auto;html=1;exitX=1;exitY=0.5;exitDx=0;exitDy=0;exitPerimeter=0;entryX=1;entryY=0;entryDx=0;entryDy=0;startArrow=none;startFill=0;endArrow=block;endFill=1;" edge="1" parent="1" source="62" target="64">
                    <mxGeometry relative="1" as="geometry">
                        <Array as="points">
                            <mxPoint x="305" y="536"/>
                            <mxPoint x="305" y="570"/>
                            <mxPoint x="296" y="570"/>
                        </Array>
                    </mxGeometry>
                </mxCell>
                <mxCell id="62" value="" style="verticalLabelPosition=bottom;html=1;verticalAlign=top;align=center;strokeColor=none;fillColor=#00BEF2;shape=mxgraph.azure.git_repository;" vertex="1" parent="1">
                    <mxGeometry x="235.04" y="511" width="50" height="50" as="geometry"/>
                </mxCell>
                <mxCell id="98" style="edgeStyle=orthogonalEdgeStyle;curved=1;rounded=0;orthogonalLoop=1;jettySize=auto;html=1;exitX=1;exitY=0.75;exitDx=0;exitDy=0;entryX=1;entryY=0.25;entryDx=0;entryDy=0;startArrow=none;startFill=0;endArrow=block;endFill=1;" edge="1" parent="1" source="64" target="65">
                    <mxGeometry relative="1" as="geometry"/>
                </mxCell>
                <mxCell id="64" value="&lt;meta http-equiv=&quot;content-type&quot; content=&quot;text/html; charset=utf-8&quot;&gt;&lt;img src=&quot;https://cdn.analyticsvidhya.com/wp-content/uploads/2017/11/06110003/docker.png&quot; alt=&quot;docker - Analytics Vidhya&quot;&gt;" style="text;whiteSpace=wrap;html=1;" vertex="1" parent="1">
                    <mxGeometry x="232.04" y="586" width="64" height="57.75" as="geometry"/>
                </mxCell>
                <mxCell id="99" style="edgeStyle=orthogonalEdgeStyle;curved=1;rounded=0;orthogonalLoop=1;jettySize=auto;html=1;exitX=0;exitY=0.75;exitDx=0;exitDy=0;entryX=0;entryY=0.5;entryDx=0;entryDy=0;startArrow=none;startFill=0;endArrow=block;endFill=1;" edge="1" parent="1" source="65" target="66">
                    <mxGeometry relative="1" as="geometry"/>
                </mxCell>
                <mxCell id="65" value="" style="shape=image;verticalLabelPosition=bottom;labelBackgroundColor=#ffffff;verticalAlign=top;aspect=fixed;imageAspect=0;image=data:image/png,iVBORw0KGgoAAAANSUhEUgAAALcAAACkCAIAAABaTij9AAAZ0klEQVR4Ae1deXQcxZn/qnvuQzO6T8uHbtnGty3j29g4AQyGvN3EhE2AkA05NhBINry8ZN/GL3lLdtnsPpJNIH/EgWQJEDaOARs/bGzwgW0s2xjbkm3dsiTrGmlGmnumu/e1RqruHvVcmpFHM6pGD39d9dVXX33fr+v4qroHcRwH5CIWCGsBKmwuySQW4C1AUEJwENkCBCWRbUQ4CEoIBiJbgKAkso0IB0EJwUBkCxCURLYR4SAoIRiIbAGCksg2IhwEJQQDkS1AUBLZRoSDoIRgILIFCEoi24hwEJQQDES2gCIyy8zmQP/bBkzoww8Izt1bvDJLDQCD/X/p7H45TGuK8nfnFz6KEO2+cWrgzz9i3Y5QzIalO7K/+HMAcF6+2PjlL3I+XyhO4/Jl5S+/QhuMoRhSIj31+5IwEAEADvwTB2hY1hveJSznGWfw+1iPKwwz5xvP5Rg2DEQAgHG5YEKBMAJneBZK9VNIe9vs/hBdCUK88R8q0mWp+YfB7e5wORoQCvlgqLVlGk0ZQogZ6fe2XxyzjJxolqWzStRzl/AgsA6Pnj4JLAMIBaMBIY5hFVnZ+tVrKaVyhuMgvHopj5LwzSO5CbFAas9LGIaZ+X0hNXYlxFvJEpLCKDl79pPGa9cYP5Ms20VZr0KhqKqqrKtbEyX/DGRLVZScOXP2D6/+cQYaVFal02fPOp3OrVu3yObO/MSQU7kZrvqbf3lrhmsYpN6BgweDUlLoNlVRQlEppnmYtdXMh0uK2Rob9OHdX8J0ShAPPbgrJfSUVTKFV8INDY2HjxxxOsOFv2TbfNsSx2IonE6n37Zt68La2ttWb8IrSmGUJNwWRGAoC6TqiBNoz8wPloSye2qlp3xfsvxEv43l6LFgfJDpAzs8h1dmL9DzC/4R28eWwbcRooPY8K05c6vJvAUhytvVMHrilVAQRIxPXbbKcOfDAODtbOt+8Zfg9yG52TTrdmura/P/8duURotrSUUiVeMl2NYX2+0gt9mCGSyLzQGUeNw3h0fqcfpkQq2ZZzJvBgDWPuhoOMH5Q+8OKlQBlPitVsuBdyeLwikGiyXv8W/g2xQlUnvE4Y1OyXUj2BsIcHbEtSjCb01TNFKE3Z+jJp4uBCjsTh5S0PxGYIpfqY+SFHdASqhPUJISbkqykgQlSXZASlRPUJISbkqykgQlSXZASlRPUJISbkqykgQlSXZASlRPUJISbkqykgQlSXZASlRPUJISbkqykgQlSXZASlRPUJISbkqykgQlSXZASlRPUJISbkqykgQl8TmA5cK/Tc76fMHvD8dXYVJKT5yTSErlqV8pZTSa6tZwfj/InlXzevXVtYgKeTouVQxAUBKXpzQLKir2vh6XiFQoTEacVPBSsnUkKEm2B1KhfoKSVPBSsnUkKEm2B1KhfoKSVPBSsnUkKEm2B1KhfoKSVPBSsnUkKEm2B1KhfoKSVPBSsnUksdcQHkAQ8s1N/iu/Kf9SZ4hmyycTlMjYhc4sMa9/hP/wtNzFsYyqsEouJ23TCEpkXKvMnavc+nWZjNmaROYls9XzsbSboCQWa81WXoKS2er5WNpNUBKLtWYrL0HJbPV8LO0mKInFWrOVl6Bktno+lnYTlMRirdnKS1AyWz0fS7sJSmKx1mzlJSiZrZ6Ppd0EJbFYa7byziKUcBwb3sscRGAIXzyNc2fRnnBm5jadrlr2ZwUCDlYq8wF/ZDyNfR5702YRShSqbIUqO3YTkRLk0SEYiMICs2heEoU1CIu8BQhK5O1CUsUWICgRW4PQ8hYgKJG3C0kVW4CgRGwNQstbgKBE3i4kVWwBghKxNQgtb4GU/6VY+WaR1IRagPQlCTVnmgojKElTxya0WQQlCTVnmgojKElTxya0WQQlCTVnmgojKElTxya0WQQlCTVnmgojKElTxya0WQQlCTVnmgojKElTxya0WQQlCTVnmgojKElTxya0WQQlCTVnmgojKElTxya0WQQlCTVnmgojKElTxya0WQQlCTVnmgojKElTxya0WQQlCTVnmgojKElTxya0WbPomwMnBlwbD3SCkto2z3h4XUFCzZh8YaM+NuOddvAyoKYb7yquzlAnUKdZhJKN9QO84Xxsq5dJoAVniKh93Q5w+IHhgANfor/WM1tGnA6HHwbdAY8qUbr9BhLDcq/3OHiIAP8DTwlv32xByUtttnEjzpBnP6Fq9LqZ9/pcCRUpETYrUOJmuD8NjHckktany80Vmwds3ulrzaxASa/L3zXkwUb08T+8lyYXN9aW33bYp7U9iZ+9Nje1tLW12x0OjVpdUlJcU1utUMRcC8dxKHGj62OfDsKoD9uxVBnvs9E06tt/y3HB5vWxXI1BeXeedn2uFsufAmH3sUf7XR8PuVucfhagRE0vM6k35GrKDMrw0hBCe9tG9jfbBDaE9HS8DRSkjVExvyf87DP/jEV87YnHamtrAIBl2SHL0PuHPzhffx7nYqKkpOSBXTvnlJQoVfJt/vNrb9bX12N+g8H40z0/wbcRCavV+sIL/+1yOjHnT/f8i06vt3jYVzpHf/BxH04PT/x6fcG3y02heDiOu+ViXm4f2XNuQPZ3Hz9Xafr32syaDJWCinZ23OvyH7zl/Nq5fnCFXHYtmGv4XW1mrVGVq6HFku0+9oLVs+lUL1ijG2tK9Ny2klCtC58e81OOEBX4cCpCVG9vX21tjdfrPXr0ww+PHff55NXt6ur6n1//dvEdi3fs2F5YKBOoWLd+rRglHMd2dnSWzi0NrzrO7ejoFENk+YrlOq3mUK/z3hO94PRjtggEAnPoPsbHcnsah352aQi8IVeZh27YDt2wfak28/mFWXP1EQzLctwvm2w/uDIEI0InJ6tha4d9W4cdjMrH5xn/c3GWWUUDQLPdt/Jsv+1mDAPNejVfcGrX1LsmjmOHh4cB4E9/fO3w+0dCQQSrdfmzy3t//0pPdw9OwURp6Zzc3Fx863S6Wtva8W1EorHxOuahKLpswXyKVtQPe2KACPA/CxsmzKA60vWzc4NhIIIVeL1heN4HXQPukH1DgPPpSxa+k4sEESwWRn2/H3QHlroA0Gb3xQQRAHDFMRubOkoAwGYdeeedA1evNgQaQ1G0Wq3W6/VZWVl6vV6lUlOUBL8Wi+WNN95yioYGbIX7H7gP0xzHNje1uN1RrUo8Hs/5+gu4bEaGcf6C+QAwR6sAoxJyNZCj4QnxIKCmIE/Lp0v/irQSbbFMdOgm9AjDGZ9OASgRaGn+T0kFfw91yJN3qDMwr8RCxMS7PY5ffWoRp/DqKRCoKNApxmQi/lasM4Ln5xmzJ/qDbDU1rnyggbSIFQFkqYOaBlnqdRkqSY2x3EToGMOLampqbmhoDPBUVVctX7Z05aoV4iJnTp89+0l9Z0cHTuzq6jr6wYf37bwHpwSI2toatVrj8Ywjo7unZ2RkVKPRBLFNvr1xvYllhQe3oKAgM9MMAI/Nz3hsfkaA/+Atx71Hu8E3vrSpKzac3lg4WZRsynOXLdArgggCbYnhrVrzPYV6zP/XLvsXrlmh2yHMV6zee073vXenzPDqY7mdnw3hsjyRrX6+0vzDKl5tfA24mZfabH/udzcOuMDuB63ikTkGnLs8U8PdNxffonfawTKxiNPQnXeVzIk05OGy0RBx9SVerycwR7n77u2PP/7VIIgAQN3aNU888eiKFcvFqhw79mFHR6c4JUBv2boJJ47YbG3RDTqnTp3GpQCgorJcpZI8NBzHDXgkk4lBNtqVcOOI5xcN/KiKrz2rc4c3F4khAgAPlRh8W4u/WCNx86G2kaN9InhNiGixeyWwMylvbC4OgggA5Gron9RkNWwqurGj9JfrCvYszizWyT/SDj8L4hZxnM0vPDYT1cb1b1woCdS8YuWKHZ/bHmq5q9fr79t5T2FRkVjN4x+dEN8G6LKyBRqNsJ5suNrAshLvTi4yPDw8OCh03Tqdvrq6cjKbqDvmM+XHlcnFAH5xwyZefTy7PPvH1Zlqcfc+UUpBoddX5/NDG7583H+0jHjwVGIi/YxFMsffXWKoEJeaYMP/VhiVT5dn/Lg6E6fcfiJelCgUys9/fkd4vTMyMlavWoGQUFdHx02xdwPFC/LzxSugK1euys5gxHW1trZbrVackpubU1Ag08ljhpiIHqf/lbZRoUiG8lvzTeGjOO+uzRf4AQ51OYYn7Sz2SVNyQy+ssCg0duHb208Inpta3QsX1mRkGCOWvXPdWkoURRgdHb11qzeolEarKStfIAbT6Y/PBvGIbxmGaW1pFf+eyZatm8UMcdIfW9z8LuvEtS1fF3F9e3eBjp+B4svDnJrYYsRpJmnI61N7hJUwLphEQtSkKWlRUlJCUZGFKBSKqqoqXAPDMN3d3UEDCkVRZWVl4lnFyZOncJHJhM/nu379Bk5XqzU1NUIVOH3KxPNtI0JZBA/la2kR0IUsEYUASgp1QgLDfWQJXqmtypJMm453O85apnGjTlAmDiqyg8MIVyiVubk54TthXLxKNGPgOHagf2DyWrGysjwzSxiAXS5XY+M1LCGI6OjotFqFyHRd3epo8BokJMzt+S6HkEuh8LOHACeNYHuGaGoC0CjqjQI8VUYViBcgLqbuSPf5ITcjnoEKFc8IKj6U0IpohptAQ4uKJItPl9vt9wv9OTbGihXLMM0wzOXPruDbIOLK5at4uEGIWrioNoEo6QzyropSU8jmZQfdTJg/i4fVBQ0oHoaVhrMMSuo3y3IkbXExK9/u+PrFgU8mdTwStuTdyC+uotSHpimlUvLohCmolQY/nE6X1+tTq4MP3m3ZsunAuwexnM7OmzarzWQO3l5xOp0tLW2YraCwIC8vD9/GT9yweyXLSzez8aMeiDTi8PVKQ/iDftbLgka6rHp0nvH1XufxZtGIBrD38vDeG7a6YsOPyjLuLtDJrqTib9fUJMTVl1AUTUkfnTBK0AqFOBTr9XgYRqYvQQit37AeyxkYHLQMSWNQY3l9ff19fcL8t3ROidEoBJ1w8SkTPS5GCJGNxe/50NaIL/JfUGyej2UEh2e0CupgXf7SBUZJdBUAPOyZ1pH7D3dpDna83DLimzFjUFwooWkqykkJH9RGiKaFZ4phGDaEFdatW4u96/f5rly5im8xcenSZUyPDTcL8W1CCJufhUneTYjkgBC9grq4seg36wrAJNcZWzxPnrileqP5jU67Tdo5JVCH6EXFhZLJT0n0FY89X8EPWaC40WgoLy/HopqbWlwuySqAYZiGic0jAMjKziotneKeOK4liOCf4yDtqLHtm5j+H9jxCRItuv1muanv83OfW5kDBrmh38N+6Wi3+Sg/txUVSgIpp1zUanAsG6o/mCyD5TjxhgtNUeLQiJhfrVaXlS1omYiFdHd39/X1z5snbFu0traNjgqb5mUL5huNkWM24ioi0mpqbLMNA8Wo3FeXl6OiIwSDpXIZjstW0Rq5WC1mzNPQP1+Ytac261fNtmebbDD55GWvc+W7HfvuKt5VnMghFSsQDREXSniQRAqiYyWYsQvfKpVKOsSchqKoqqqKEydOOZ3ja9GLFz4Vo6Sx8ZrXO765hRC1bPlSLDZRRJaKGjuKPgETClZlakLtpMRZKf+4IHim0vy9CtOJQfemk73g8IF/omr+lBc8eKzn/W0l2wtEwZg4a42leFwjDsOwsqtZWQW8Xsn+hUajCbX1AwD5BQX5+cKapV50NsDpdHZ23MRVmM2mysoKfJsoolSnkEwtvWy/R2aunajqAnIQQhtztdyD89/aVARmSfAN/Nzdl4dGkjRHiRMlzOioaKcjrM36+vrF+Tq9ThxmFWcBgEajLq8ow4lutwsHThwOZ1ubsAZeu3YNZksgsTBDJVn3etneoMVLAiubJOoLcwyO++aCOIwLABbXJdvE8YBJRaY1IS6U+P3+IcvQ5BCqrMbNTc3idJPJFD4IVle3Wrwmqj8/ftTo+jXJybSFi2Je3USzrc4fHJw48sOrzXKf2m7rhotOQXE75oBJ1KN42LPDKYgSjmN7bvVGiZIGUaydpumiwoLwKDGbzeKVzkD/QKDfEq+By8rmm82SUx1iIIaio1yaPVU+foiJl8PBH/ucwonCUKITnf7SHaIfU+fgljuKUU80n0mUOnH1JQDQdKMp4v4+AHz22WWPW3gOlEpVUbHkxIlse8RH2ixDQ319/Xa7va9v/Ew8QlRZeZlGExy9nSwqaHO+NbrR/SulkjVFY6+zaVQytZpcUcJT9NL1kWwER4GQZHBkOG+IQNSU1YsXJVar9eLFS+Gr9/v9Z05/Il4GFxUVio+ShCqek5NdNHF8ye/zWa229vYOh2N84aNSqRYtrA1VFqcjhPjD8eLg+nBU4Yc7TOocMVBczPeu8ufWouw7sQLxEBbpie1ctcyalI/li1eLfs4mLRWPAoGy8aIEAP62b39zU0sYVc6dO3/9ujCZAICly5aEWeBgUUqlUnxKsqOj42ZnF87Ny8/LL5Cc+sFZQUSBhpagxM1+ZhU6tiBmfKug0O8qTeKTzx802b5a3++cdPwMF8GEzcueGHCdGnQFjW5OP/tS88jlKGoHgBEv+3SDaHdCRS2XDdQC1Ig3mQH+0CkEk7BK8RAJQAkA7N376skT8mdBjh376G/73harmJeXL47Bi7OCaITQ/PnzDIbxnr+1pa2ruxvzLFu2JPzMBnPmqRX82XTRteRMv1+uWw7qJ3YW6VfMk8TrXr0ybDjcdfCW6FCBSCwAXLF5vnFhwPxh98YDne/cCj73ygF886rljoOda47f+q34hTypEAA4N+Q2HeuGYdEYZ1AsNcsfF9+dJ0l/9br15IAkWj1JfGwJEtvFVhTAYDAyDONyOd1u1/79777//gebNm+oqalGCHEs29LadvyjE8PDVry/H5D/6GP/EH1FBQX5OTk5djv/cPT19ff3j32DhF8qaysqhCh+eIHFOsW9OZoD+JQ5APQ6lQc6Dq/Oy1FTPpZ/Cerha9aHTKr/WyPpnBQU2r8yr6R/7BQ7rqPPde8H3fwLFjrFd+cYslRUn4d5bchrs7j5rR+Gw9vCSPqyxLgACoGX/aR15JP2kW+dHwAaPVdt3lmgC4RoGQ6u2LyPX7bw24riwBrAT8tN+SHeBdlVqP8XelD4qIKP2/B+1/cXZ32l1OBh+QHo5fbRv/Q4uAcX4EbERMSFkuLiolWrVrz55lter5dlGYfDfvDAewcPvBdKA5qmdz34QF6e8IJWKE6crlKp7liyuL2df4mL44T+u6ioMOjACi4iS/yk0nSgeUSwIx9+8Gx/T4jOAYA6U2YiXKxTNH2utOLwTRCvhP0c+BlwMS+KkTepYtnJpsDFQuDo9fP1g88LqfJUTqnhh1XC+awgpgqjqm6u8Uyr6CiCj33hwuALFwYFTtmtIiE7HBXXiGO322tqa778yO6sLNGCLUR1FEXvvP++urrV0W8jByRVVlZotcGRafFhpRAVSpLXZGv/bZUQzJXkTdwIGJxICfxbblD27ChdXyZaGEsZQt2ZlXRQY3lzRzGtkQik4MFqc/vGwjAnTjQ0+t0dWfLby1hWHCvkuFDi9XodDseiRQu/850nly5dgvWZTBQVFX33qW9v2LAuypmEWEJhYUFQt6FSqaqqYz7i+ly1+aUNhZK4u7gaAHforbxCneLwnQWXds2THEaUFpfcFerq75/75ALJnIaPKdOocWvR30nf3JEUDLrJVB3ZMefN1Xl6RQRPLTarb2ybw7/SF+qSm4eF4g1Kj/mbA99/9jk8zzCbM7/x5BN4BLHZRv62722Hk//P6/UqFAqDwaBSqTZv2VheXhbPxybO11947bXXsepLlizZ/fDfR39MDhfkJzcuZte5/jNOP3j8/JvBNAK1AhTon/K0Ly6VHjQUFxPRPU7/7gsDx51+fv7hGQvkIuCnKSoaaPTDfO2/1maF3wcOLKf/q8n2bKedPxHnY/mv5gUwyuvDy9lpVP51Tb74IwMiFUKSHMe92DzydNsILzOwpaCiQE2v1ijeW5OXJY4mh5QhkxHXvITjL+EBNJkyvvroI3yfyk9p3SqVUrxTE9T3yugSOqm7R3gHHSGquqZqahDh9xG1dOD1z8A7fzoaGYKCbqHVCOQU6RQfrR8/w2v1MvyBRQpliF+wiCSB//gZQs9Ump+pHA8cO/ysY2yualJSYUaWiIIRQk9VmJ6q4A+AWjwMx0FO0GnKiCLkGOJCiZxAPo2maYNBeI02FFuU6S6Xq+Hq+NvIAGA0GqJf3YSpAiGUF7cFA9+JCFNLlFl6BSUNeURZLhwbfvU8HFN0eRFGu+iETC9Xa2v7wMD4AhgAioqLAu+LT2+tRLrIAjMdJSzLNk581iCg9tq1dSL9CXk7LDDTUWK325ubhfC/2WwuK+M/T0Ku22mBmY6SpqYW8XCzdNkSrVb4LsHttNRsrmtGo8Tlch05fBS7R6vVrVq1Et8S4rZZYFrWOAnRvr9/YN9f9/f3C19YXLSoVnwYNiG1ECHRWGBGoKSrq/vUyY8zTBkF+fmAUHdX9/DwcHt7p9UqfIdIr9dv3LQhnqBLNOYgPLIWmBEosdls586d5zg28IaOOFKHld68eVNQnB5nEWK6LTAjUIIbKYsPhKg1dau33rU5nhg/roIQU7DAjECJz+eTxQcAZGZmbtt+V13d6kBUewotJEXit8CMQEllZcWmTRvPnj3ndgsnrMrKyh7YtdPIX5JTyvG3mUiI1QIx7wnHWgHhTwMLzOh4SRrYNz2aQFCSHn6c3lYQlEyvfdNDOkFJevhxeltBUDK99k0P6QQl6eHH6W0FQcn02jc9pBOUpIcfp7cV/w8oXmGS7ZB/6wAAAABJRU5ErkJggg==;" vertex="1" parent="1">
                    <mxGeometry x="229.99999999999997" y="664" width="68.07" height="61" as="geometry"/>
                </mxCell>
                <mxCell id="102" style="edgeStyle=orthogonalEdgeStyle;curved=1;rounded=0;orthogonalLoop=1;jettySize=auto;html=1;exitX=0.75;exitY=0;exitDx=0;exitDy=0;startArrow=none;startFill=0;endArrow=block;endFill=1;" edge="1" parent="1" source="66" target="67">
                    <mxGeometry relative="1" as="geometry">
                        <Array as="points">
                            <mxPoint x="344" y="745"/>
                            <mxPoint x="344" y="537"/>
                        </Array>
                    </mxGeometry>
                </mxCell>
                <mxCell id="66" value="Flake8" style="text;strokeColor=none;fillColor=none;html=1;fontSize=24;fontStyle=1;verticalAlign=middle;align=center;" vertex="1" parent="1">
                    <mxGeometry x="214.04" y="745" width="100" height="40" as="geometry"/>
                </mxCell>
                <mxCell id="103" style="edgeStyle=orthogonalEdgeStyle;curved=1;rounded=0;orthogonalLoop=1;jettySize=auto;html=1;startArrow=none;startFill=0;endArrow=block;endFill=1;" edge="1" parent="1" source="67" target="94">
                    <mxGeometry relative="1" as="geometry"/>
                </mxCell>
                <mxCell id="105" style="edgeStyle=orthogonalEdgeStyle;curved=1;rounded=0;orthogonalLoop=1;jettySize=auto;html=1;entryX=0;entryY=0.5;entryDx=0;entryDy=0;startArrow=none;startFill=0;endArrow=block;endFill=1;" edge="1" parent="1" source="67" target="68">
                    <mxGeometry relative="1" as="geometry"/>
                </mxCell>
                <mxCell id="67" value="" style="pointerEvents=1;shadow=0;dashed=0;html=1;strokeColor=none;fillColor=#505050;labelPosition=center;verticalLabelPosition=bottom;verticalAlign=top;outlineConnect=0;align=center;shape=mxgraph.office.concepts.publish;" vertex="1" parent="1">
                    <mxGeometry x="370.5" y="506" width="57" height="48" as="geometry"/>
                </mxCell>
                <mxCell id="106" style="edgeStyle=orthogonalEdgeStyle;curved=1;rounded=0;orthogonalLoop=1;jettySize=auto;html=1;exitX=0.75;exitY=0;exitDx=0;exitDy=0;entryX=0;entryY=0.5;entryDx=0;entryDy=0;startArrow=none;startFill=0;endArrow=block;endFill=1;dashed=1;" edge="1" parent="1" source="68" target="71">
                    <mxGeometry relative="1" as="geometry"/>
                </mxCell>
                <mxCell id="107" style="edgeStyle=orthogonalEdgeStyle;curved=1;rounded=0;orthogonalLoop=1;jettySize=auto;html=1;exitX=1;exitY=0.5;exitDx=0;exitDy=0;startArrow=none;startFill=0;endArrow=block;endFill=1;dashed=1;" edge="1" parent="1" source="68" target="73">
                    <mxGeometry relative="1" as="geometry"/>
                </mxCell>
                <mxCell id="108" style="edgeStyle=orthogonalEdgeStyle;curved=1;rounded=0;orthogonalLoop=1;jettySize=auto;html=1;exitX=1;exitY=0.75;exitDx=0;exitDy=0;startArrow=none;startFill=0;endArrow=block;endFill=1;dashed=1;" edge="1" parent="1" source="68" target="72">
                    <mxGeometry relative="1" as="geometry"/>
                </mxCell>
                <mxCell id="68" value="" style="shape=image;verticalLabelPosition=bottom;labelBackgroundColor=#ffffff;verticalAlign=top;aspect=fixed;imageAspect=0;image=data:image/png,iVBORw0KGgoAAAANSUhEUgAAAP8AAAFHCAIAAADhhA0xAAAgAElEQVR4Ae1dCVQT1/d+SAgRUMEtVAVUtMaq0CpWpbaxLtCKgkgLrQtatbi0xQ0XpLK5oLiCP9e6YrWFluJGLagt8Y8gimhQSqhsggujaMISSEIw/zMZCGELSZhMZuBxOCeTt9x733e/mXnz5suMgUwmA/APItApEejSKUcNBw0RQBGA7Ic86LwIQPYTkfubyakhW8NVe0p89Xjlo0tlUpHqZrAWRwQg+3EEswVT+QWFCxatmDN/8ePcvBaqlYpq3tZGFqTY3giPyL9VK3urVAM3dYUAZL+ukC0vr9i+c+/Uz2bd+CdJfR+vJVWrsi5/+H//S35TqH4v2FI7BCD7tcNNVa+3b9/+Fnvx48nTDx05LpFIVDVtpS6j7PnHt47MTDv9pJrfShNYjAMCkP04gKhs4nba3c9nfrnaz//169fK5VpsX3nJe++fPcE516tra7ToDru0iQBkf5sQqdvgxQtk5Rr/L75amPVvtrp92mpXVSsN+e/6u//sjirOkAF4Z6YtvDSsh+zXELCWmldXi/bsPzjx0+mxcReBDjj6tLpswYOYT1N/4pa/aMk/LNMSAch+LYFTdEu8njRp2ox9EQfF4mpFoS42OKX5o29Get+PeSmp1IX9TmgTsl/7pD989O+sL+cv+nbFs2fPtbeiSc+3MtnZpxnD/t69M5cjeVurSVfYtgUEIPtbAKXNojdv+IEhYS5uX6Wn32uzMe4NBDWijdlXR3H2/YnwcDfeqQxC9muWbqlUeuLkWUe288nTZ9++lWrWGdfW/1WWutw5Pe328X8rX+JquBMZg+zXINk3k1OnfT47aEtYZSVZZt7XX+W+z4lY+ehSOZRIaJDJuqaQ/Wphlpdf4P3NMrlgIVetDgQ2qpdI7IISCU1Rh+xvA7GysnJMsPB30s02muq1ulQihBIJTTMA2d8qYphg4ZMpLoeOHK+pocbd1oyy55/cOuJ57zyUSLSaV6UKmtI23GxAIPX23cCQbdm8/xqKKLIlA+C355nxyL/rbCdtHDqJ0QWmuNXMwWN/U2ievyhZucb/y68XUJH6isFgEomhf++KKs5QFMKNJghA9jcAggkWPv70c7lgoaGcult1EomUY1Ai0WISIftRWGQy2eX4BPZUTLAgbhEp6hYmvYYSiZazByeF4OHDrMCQsLv3OvIMAZNIXEGyNwyZtHrwRHoXw5bp0MlKO/Wx/+XLVxs2BU938+rY1FdQml9TvTH7ql3SfiiRwDDppOzHBAufTHE590uMrJP9iDZH+AqTSGR3eolEZ2R/4vUk9pQZpBIsKA7PhG1cf5Vr3+klEp2L/bl5BfMXLlv07YonRUWE8Yy0jjCJBOufPcee3HnbKR/p11nYX1ZWHhgSNsXZ7R8OqQULxO8qL0QVSzP/+DD5f7f4T4j3rl+PHZ/9UmntufO/fTzZ5eTps7W1+tQk6zfTqr3fEzz7OPmw573zRdUC1S07Um0HX/G8lXonOHQ7pe/aEsa2TiiR6LDHfkyw4DVnIaS+RvtP/VMkOoVEogOyv6qqes/+gx1JsKARfXFpXFyFPkVicupPmeUluBgkp5EOxX5MsDBpSscULBBPoH9K8z64GeF9P+ZVB32KRMeZ92dmZgWGbEvPeEA8Szqwx44tkegIx/6SEsR39Ybpbp5kpr4BMFC9k7RRrbqzjmsxicSYm5HXS0n3w872DN2A0m8uqqmpiTr7a/jeSKFQ2B4UdNzXYIaL84/+fgP691Ph6K1M9vPT++uz/0TEZPnJfIvRzujL2j/K1dakZ4u11CqkMPsTrycFh4YVFReTGfFRI0eGBvmPdfhAzSCFtZJduTd35CaJ9fq4FNXRGnUxXG4zbgvLqTuNobolyWspyf7cvIKgkDDO/yWTGdy+ffqsXfX91195dOmi8fTysfB1AC/ht+eZZB7gO4xuwe9OW2I9tosBmWdtqiCkGPsFgrK9EYfOnP2FzHdtaTQj73lfrV/7g5mZmSrs26q7Xpq7+tHlRxVIWw31WT/GvH/ESNePLGz0GYS2vinDfqm0Njrmjx279/P5pH6hw9TJ7JDATTY2VtpmpFG/GlntqaJ7AbyEUgl5L2wMAPiin93u96ZbdzVvFD3pv1CD/cm3bgdv3cnj5ZAZz8GDB4ds3vDppI9xD/JNTVVIzvWDhbfJ/D4vE0Ma5Z4iQXb2FxYW7di9/0r8X7hTCkeDPbr3WLFsic8SbyMjIxzNNjH1oPzFykeXbr4uaFJOqq9WJj22vuvsbTWaVFG1Fgx52V9VVX342MmDh3/S7tVXrQ0Y33IDgy6zZ80M/HFdr54ErQBeRrJXPrpcUPUG34Hga+3T3rb7R8y0626Jr1ncrZGR/TKZ7Pc/Lm3fuffVq1e4DxhHg47jx4UE+Q9nvYujTXVMVdfWRBakbHv8d4WUvI+f6GJgMLf/B3tGTO9Db9elvzqAaN2GdOznch8Fhobdy7iv9ZAI6NjP8p11fr5fergR4Ks1F89EZf7ZCT8/zSDz27wsjLoGvTv1u0ETaAYaL/u2NnAcy0nE/pISJCx8f2zcJV28+govyBiMrsuXLvp++RJjY2O8bLbHzh1+8cpHl28LSP1DTZZZn70jZ3zeZ1h7RqqLvqRgv0gkOnHqXOTBI+QXLGzetK5/v3d0kQmtbcqA7Gzx/Q3ZV0vEFVobIaDjjL6siFGug8kkkdA/+xOvJwWFhBU/JbVgwW7UiJCggLFj3ieAJdq5oIREgt7FcBmZJBL6ZH/Wv7zA4O1pd9O1yzcxvdojWCAmQmUvUCKhjEab2/phPyZYOB31i35ffaUaHSMjo/lzcRAsqPaii9obpbmrSC+RcDAfEDFypqNeJRJEs18qlUbHxFFCsBAaFGBtPUAX7CTAplT29mRROpRIqIaaUPbfTE4NDg377zGpfyFhazs4ePPGT9kTVQNHiVpKSCRMDel+tp/o5UUbBLG/oODJzj0R5BcsrFm5YoH3HBqtQz3iOLvy5eqsKwkvSf0eGr1IJHTOfqGw6shPp0guWDA0pH3lOXu9ny9hggXiTx2UkEhM7mW7f9TMUd0IkkjokP1v376Njbu8dcee16WlxCdbfY8fTRgfEriRRbhgQf0I8WpJCYkEzaDLImuHrSwnAiQSumL/A+7DwJDtGfe5eGVOF3ZsrK03rl8908VZF8ZJa/O5qHxj9l9QIgEAwJ/9lBAsdO1qssznG/IIFojfVe4Knq58dCmVT3aJxL6RMz7TmUQCT/ZjgoWI/x2uqqoiPp1qe0SfsBAYsL7fOwRNLtUOjOiGUCKBG/sTrydtDtn27OkzonOoiT/yCxY0GQ0+bSkkkdjKcu5Gw1NciAP7H2VlB4aG3blDasECs2/fNSu/0+4JC/iwjNxWcoWvN5H+KRL9GN2D3p2K41Mk2sV+Pl+wL/IwNQQLfr5mpqbkZqD+o+tsEgkt2S+VSs9E/bJ7/8GKinL9J631CKZOZlNasND6yHRVQyGJxJ73plu17ykS2rCfKoKF0EB/9icf6YomHdruK0nlZt6140V3SfsUiV50kz3vuSywGtOePGjG/vyCwtCtO6//zWmPS133Ne9hvtp3eccTLOgat+b2ySmRwPF2mLrsr6io2Lvv0Kmz56XSmuYwkaTE0JC2YP7Xa1d916NHd5KE1AHCIJVEAl8phLrsvxyfsPz71WTO5UTHCcGbN3QGwQLxWZC8rT1ceHtzTqIenyIxxLTXdpbzl/3scBx+R3h7xUAbmw3rVnU2wQKOJGjTFL2L4crBH33Zb5ReJBK6k0BTm/2YYOGHFd/S6fQ2UwgbtBOBfozuUR94/jDIkTCJhAEA8waMDn/vc0vjbu0MvsXu1GW/gYe764/+a/v06d3iwGChjhAYaz7g1sTlBDxFYqzFgIgRrhMsrHU0EAAAJdlvbz8qNNB/zGjyPmFBdwkjg2UDYOBtNdqj30gdvWijH6N7GOuz+VYftPm6p3aiQTH2M/v23bh+9RezXQ0o+8aEdiaMPN1NDenBw6bOG/ABjhKJroZGvoMcA4ZOxlfP0xpolGG/sXHXZT4Lv1u2xMSka2uDgeXEIzDEtFfMmDl/Dxy36tHlh+17ue+MvqzIUa6DtHrclUwmEwqFmr4uhIxPV2yewqmT2UnXLq5b8wOkfnNwyFAyuZdtxie+R+1m96ZrI6Ya3o351/hFl8ct1I76Dx9mzf5y/j+cW5pCQXb229ranjvz0+kTh62sqPpwEU1TQtH2NIMuPjYf5kxe6zvI0VDtZ9b2pJvsHzHzIXulcx9tHoX98uWrDZuCp7t53b2XoQVu5J35YIKFhQvmGBp2qCcsaJEkCnXpaWQSMdJ12cDxbT5FwqiL4TdWY7axnLU7XWA6y137DlRWav+CVzKyH3vCwga/lT17WlAo8TBUBQLDzfr+NW7RZSR71aPL+S29aGNqnyH7Rswc2Y2p6KLRRuL1pJAtO54UtfdnmaRj/0THCSGBG4cNG6oRHLAxCRGYyRzu3OfdJhKJoaa9t7GctBYs5OYVhGzZ+Q/nJi7jJRH7B9nYrIeCBVyyShojColEyH/Xf33GXT34Y/+hk4y7aMO6srLyPfsP4vuyWm3iwB1bKFjAHVJSGezH6H7UbnbkSFfteI+9rHbnnsg3b17jOy69sx8VLGze5Ne7dy98BwatkQ0B7ah/KyUtaMsOHb2sVp/sdxj9/pbggFGjRpAtTzAeMiDw5ElxyNbwxOs3dBeMPtkfsNEPUl93qaWuZexltYeOHBeLdftSSn2yn7rpgZHrCAGCX1YL2a+jPEKzGiNA/MtqIfs1ThLsgDsCCPJy+859xL+sFrIf91RCgxogUFNTE3X21/C9kXp5WS1kvwapgk3xRUDvL6uF7Mc3odCaWgi8elW6/Ae/22l31Gqts0ZkVzjrbODQsD4RKCws0jv1AQCQ/fokAfStXwQg+/WLP/SuTwQg+/WJPvStXwQg+/WLP/SuTwQg+/WJPvStXwQg+/WLP/SuTwQg+/WJPvStXwQg+/WLP/SuTwTgvV59oq+db0FN9b2yZ3cFT7nlL55WlyHiyi/6jdzO+kw7a525F2Q/ntl/JirLrnylqUUzGn28edtPKi6s5se9yIoreZTypqjJ67Sqa8n7Qh1N0SCyPWQ/nmhfffnft9xYTS2O6m6ZyV6lolfym8LIgpQ/XjxqQnoVXWCVOghA9quDkt7aJJXmr/33SkbZc71F0KEdQ/aTNL2F1fzVWVcuvMgiaXwdIizIfjKm8bfnmUsz4/g11WQMrgPFBNlPrmSK3kqXZsZFFd8jV1gdNBrIfhIlVlBT7XY36ubrAhLF1KFDgewnS3pfiMunpZ7IqkDIElAniAPe6yVFksulIpfbpyH1CU4GZD/BgLfgTlQrdb0bdb8cLmu2AI5Oi+DMR6fwqmX8sbD0sbBUraawEa4IwGM/rnBCY5RCALKfUumCweKKAGQ/rnBCY5RCALKfUumCweKKAGQ/rnBCY5RCAK75UCNdA00sPjS3sutuaWvSqxfdxILe1QAYCGqqy2pEj4Wvh5j2pMYwSBYlZD/JEtI4nKGmvRdbj3W1HD7crG/jGvgNBwQg+3EAURcmJlhYBw+bNq3PEANgoAv70CYAALKfdDSwMulxYISbm+V7pIuswwUE2U+ulC6wGhMxcmYPGoNcYXXQaCD7yZJYQ4Mu21jOG4awyRJQJ4gDsp8USTbuQvvDYd50JosU0XSaIOB6v/5TbdTFMHrMHEh94jMB2U885k09ssz6wGvcpqAQ8h2ynxCYoRNSIgDZT8q0wKAIQQCynxCYoRNSIgDZT8q0wKAIQQCynxCYoRNSIgDZT8q0wKAIQQCynxCYoRNSIgDZT8q0wKAIQQCynxCYoRNSIgDZT8q0wKAIQQCynxCYoRNSIgDZT8q0wKAIQQCynxCYoRNSIgDZT8q0wKAIQQCynxCYoRNSIgDZT8q0wKAIQQCynxCYoRNSIgDZT8q0wKAIQQCynxCYoRNSIgDZT8q0wKAIQQCynxCYoRNSIgDZT8q0wKAIQQCynxCYoRNSIgDZT8q0wKAIQQCynxCYoRNSIgDZT8q0wKAIQQCynxCYoRNSIgDZT8q0wKAIQQCynxCYoRNSIgDZT8q0wKAIQQCynxCYoRNSIgDZT8q0wKAIQQCynxCYoRNSIgDZT8q0wKAIQQCynxCYoRNSIgDZT8q0wKAIQQCynxCYoRNSIgDZT8q0wKAIQQCynxCYoRNSIgDZT8q0wKAIQQCynxCYoRNSIgDZT8q0wKAIQQCynxCYoRNSIgDZT8q0wKAIQYBGiJfO4uTzvu9em7BE09Ga0eiadoHtcUEAsh8XGOuM9Gf06M/ogadFaEuXCMCZjy7RhbbJjQBkP7nzA6PTJQKQ/bpEF9omNwKQ/eTOD4xOlwhA9usSXWib3AhA9pM7PzA6XSIA2a9LdKFtciMA2U/u/MDodIkAZL8u0YW2yY0AZD+58wOj0yUC+mR/YOiOu+n3dTk6aJuMCNxNvx8YuoMMkemT/Q8fPXL/cu7CxcufPn1GBixgDLpGoKQEWbnG3/3LeQ8fPdK1L3Xs65P9WHzX/+ZMmua6fedeobBKnYhhGyoiIBKJDh4+wZ46IzbuIgAykgxB/+wHAIhE1YeOHGdPmfFb7EWZjCzQkCRDHSCMxOtJn05zCwvfIxQKSTUcUrAfQ6QEKVnt5+86e879B5mkwggGozUCj7KyPTy9F327ovhpsdZGdNeRROzHBnn/Add19pyVa/xLS1/rbtjQsq4REAjKAkPCprt6pd1N17Uvre2Tjv0AAJnsbWzcRUe28579ByUSidZjgx31goBUKj1x8qwj2/nk6bNv30r1EoOaTsnIfiz0qqqqfREHpzi5XY5PUHMwsJneEbiZnOo0fXbQlrDy8nK9B9NmAORlPxZ6wZMny79f/fW8xf/9l9vmYGADPSJQUPBk4eLlc+Yv/u8xZTJFdvZj6fy/W6lOLh6BIWHl5RV6TDB03SICQmHVnv0Hp3zmdv1vTosNSFtIDfYDAKTSmpOnzzp+4nzi5Nna2lrSAtqpAnv79u1vsRcdJ322L4KSV2iUYT/GKkGZIGhL2HRXz7Q75F1J6CQ7wP0HmW4ec1f7+b8uLaXokCnGfgzlrH+zPby8Fy5eXlz8lKK4UzrsFy9QwcJM96/vP+BSeiCUZD+GuFwi4bZ9595Kkt1BpDQhVAdfXY0JFlxIJVhQHbOKWgqzHwAgFqMSiUlTZkKJhIoc41WVeD1pktPMsPA9VVUdRJFFbfZjecUkEjPcv8q4T+0TMV40xd3Ow0f/zvZCBQvPOpYa10BNVZlUKj0T9cvu/QcrKsh8F8PAw931R/+1ffr0xp0BndMgny/YF3n4dNQvZL5r27WryTKfb35Y8S2drtkTUdVlP5b7jo1F5+R3a6PuDMc7zdiPIfUoKzswNOwOudccB9rYbFi3aqaLc2vZheUqELiZnBoUEvY4l9R3bd+3swsN9h/9gb2Kgaiu0ob9mMXE60mbQ7aRfCI40XFCSODGYcOGqkYB1ioQyC8oDNkSfuOfJEUJCTcsmZYb1q38YrargYFBe8LTnv0AgOpq0cnT5yL+d5jMiwCGhrSvPGdv8FvZs6dFe5Dq8H3Lyyv+d/inn06cqampIe1gjY27Lv5mru/3S81MTdsfZLvYj7l/8QLZsWt/bNwl8vxirTku5j3MV/suX7hgjqGhYfPaTl7y9u3b2LjLW8N2v35N6t9UTJ3M3hIcYGU1AK984cB+LJT7DzIDQ8JIfvPP1tY2NHAj+5OP8IKvA9hJvX03KDTs32wemccy4r3hoUH+4z50wDdI3NgPAKg7hOzYQ3Lhx9TJ7NCgAGtr3A4h+KaEMGvwpI0n+7G0YdPH4yejyPyzLCMjo/lzv1rv54vL9JEwvuLlqLpadOjoiUNHTorF1XjZxN0OjWbk9aW7Ti/Y8Gc/hkJ+QWHo1p0kF3wz+/Zds/K7r7/y6NKlI9zzVod/Mpnsyp+JW8N2PXv2XJ32+mpDzGKdrtiPoXYzOTU4NIzkP/axGzUiJChg7Jj39ZVpwvw+fJgVGBJ2914GYR61cDTIxmY9UTdqdMt++a9SqCGRmOHiHBiwvt87llokjPxdXr58tWf/wV+i/+iQggWt8dc5+7HIKCSR+H75EmNjY60BJVtHTLCwa9+ByspKssWmFA8q0Nq8ya93715KhTrfJIj92DgoIZGwsbbeuH51x5BI3ExO3Ry8PS8vT+c8aoeD9gsWtHZOKPuxKCkhkfhowvjgwI3DWe9qjax+O+blF4Rs2fl30k39hqHaO16CBdVeVNTqgf3yB3eKTpyihkRivZ9vr549VSBItqqysvKDR45TQrCw8vtlpqYmegRQP+zHBlxSgoSFk10i0aN7jzUrVyzwnkOjkV0igd1t3LJ995s3nUuwoPX+o0/2Y0FTRCIxOPjHDZ9O+lhroHXd8VbqneDQ7dm8/3TtqD32dSRY0Dok/bOfWhKJkMBNNjZWWsOti47PX5Ts3BUh/5m5LszjY5OcKkNSsB8DmBISCRrNyHveV+vX/mBmZoYPL9phpaqq+vCxk4eOHBeLxe0wo9uuBAgWtB4AidiPjaGg4EnI1h0kl0j07dNn7arv9SiRwAQLW7bvev6c1IKFjz+aEBLo/+67Q7QmqE47ko792GgpIZEYNXJkaJD/WIcPdJqh5sYzM7MCQ7alZzxoXkWeEiIFC1qPmqTsp5ZEYvOmdf37vaN1DtTviCAv90YcOv/r7zLZW/V7EdxS6ycsEBwnAIC87MewoIREgsHounzpIp1KJGpqaqLO/kpywYKBQZfZs2YSL1jQerchO/uxgVFCItHP8p11fr5ferhpnYzWOiZeTwoODSsqJuOrrxQx61GwoIhB0w1qsB8bFSUkEhPGjw0NCsBLIpGbVxC8ZUcS5/80zSuR7fUuWNB6sFRiP1UkEnUTgIB1vXtpL5EQCMr2Rhw6c/aX2lryvvoKe8KC3gULnYX92DipIpFYsWyJzxJvIyMjjdIjldZGx/yxc08kFCxohJsWjSl27Fce4QPuw83B20n+FInBgwcH/7h+8qefKEeuYvtWSlrQlh08Xo6KNnqvIptgQWtAKMx+CkkkPv5oQmjQpqFDbVXkqbCwaMfu/Vfi/1LRRu9V5BQsaA0LtdmPDVsorDry06mDh38i81MkVEgkqCJY8J73ld/q77t376Y128jWsSOwH8OUEhIJCwuLVd8vUzxSTiaT/f7Hpe0797569YpszFCOh+SCBeVQNdruOOzHhk0NicSI90KDNtHp9MDQsHsZ9zVKGMGNKSFY0BqTjsZ+AEBNTc2p0+f2HThC8hdtyHMm0zpzuu7YrVv31T8s+2bhXE3XrHQdGI72OyD7MXQoIZHAMZE4mqKcYEHrsXdY9mOIUEIioXXydNGRioIFrXHo4OzHcKGERELrFOLVkbqCBa0R6BTsp4pEQusstrMj1QULWg+/s7AfA4gSEgmtc6ldx6mT2VtDfhwwoL923Sndq3OxH0sVJSQSBLCqwwgWtMaqM7KfQhIJrfOqumMHEyyoHqyK2k7KfgwRSkgkVCRPiypMcNHBBAta4IB16dTsxyCghERC6wQrd+yoggXlMWq0DdlfBxclJBIapVa5cccWLCiPVKNtyP4GuLBH3e/ef5DcEomGgNXZMjExWfrtNz+s+JZOp6vTvlO1gexvmu4OI5HoPIKFpilU+ztkf8tQPcrKDgoJS7ub3nI16Us7lWBB62xA9quCjooSiU4oWFCVQpV1kP0q4QFAJKLAizawMXRawUIbKWy9GrK/dWyUasgvkejMggWlRGm2CdmvAV4PuA8DQ7Zn3Odq0Ef3TaFgQWuMIfs1gw57O9DWHXtel5Zq1lMHrS3MzVf9sFzxK2EdeOjgJiH7tUmw3iUSmGBh3Zrvu3XrOE9Y0CYT7esD2a89fvqSSEDBgvY5a9wTsr8xHpp/I1IiAQULmudHVQ/IflXoqFlHgEQCChbUzIVGzSD7NYJLVWMdSSSgYEEV6O2rg+xvH37NeuMrkYCChWYA41kA2Y8nmgpb7ZdIQMGCAkzdbUD26wpbrSUSULCgq5Q0swvZ3wwSXAs0lUhAwQKu8LdhDLK/DYBwqVZHIgEFC7hArZERyH6N4NK+sQqJBBQsaA9r+3pC9rcPPw17N5FIQMGChvjh3ByyH2dAoTkKIdCFQrHCUCEC+CIA2Y8vntAalRCA7KdStmCs+CIA2Y8vntAalRCA7KdStmCs+CIA2Y8vntAalRCA7KdStmCs+CIA2Y8vntAalRCA7KdStmCs+CIA2Y8vntAalRCA7KdStmCs+CIA2Y8vntAalRCA7KdStmCs+CIA2Y8vntAalRCA7KdStmCs+CIA2Y8vntAalRCA7KdStmCs+CIA2Y8vntAalRCA7KdStmCs+CIA2Y8vntAalRCA7KdStmCs+CIA2Y8vntAalRCA7KdStmCs+CIA2Y8vntAalRCA7KdStmCs+CIA2Y8vntAalRCA7KdStmCs+CIA2Y8vntAalRCA7KdStmCs+CIA2Y8vntAalRCA7KdStmCs+CIA2Y8vntAalRCA7KdStmCs+CIA2Y8vntAalRDoTOznc0MXeg/4aMnc83kiKuUIxqorBND3dvHOh313lptTKhSI69wwjOk9zC0G2tjafzDGbeYktjVdV/4JtCu4EDIkMB3lPdMl/uoyNk3uu4rP4+VlFryxYTuN601gNFq7So0cufRaIaCP891/Y4lVG2aQRI/ZBxIqgPnn/rk7HRlttO501eixH3mcnfasgfoAAJFYgiBI2p2UY0cPuMzynhKSyKvfMaiLkPlgq4FyxpvbWNlg1AcAubB94sKQRdsucEqpMTJRKb8EjVSSdupkTBsxVyYc/DmhAm0tes0vo8b4CI2yngUAABrTc/V8LytTQANALCxDSh5w0y/9zSsUC9NiD7ggNTciXTD2EBogjilPsG0AABVKSURBVM7sFsWfZf31mD5ussNAHM0Sa6oEeVPnsCI9PIrnuobV6hG9ID78Kh9rLHrzhi8FTKVsExs1Sb0p42H6PpvtbN0QqOccr8AiztoVu88UAST5bMBVx3MzLRqqKbjFHOG4YAQF41YKGSnlKy5aeLHRl7yDPFuesFUmHI9LU5yxBXwEAJaSHbgJAGjjqpdhzd4TME1+pBQmXL0rgJjpGQFJSakQDcGYjh7yK9Ijzue1HFHRtchEtCXDRH7NVsFHJC037Mylysf+lnFgjHb40ORaYRUQFeTnSMG4xj2QzMSj5zgJGXk5r4Wgq8WwocOdZ7r7urHMGzXjc/9MScjK5uYU5+QjJRXoNQajm8XAQbafTJ3mM9uR1b1l1wBU8hLjj11NuclFCgU1DHOLYSPs3D538Z5ua968RynvTFRcTHI2t5gvqKWbm1vYWFu9bzfph+/YLGN5azFn7sTdF8WA6bE1L8i+kQFpcajnzFClIsYUv6f72EqTCrUjEfO5nJSEO5lpvOKcYkRQJRHU0pn9BrBGOG3fNq1w49dzEyWANnj7hQhfpdOs3LMkYYO3x1UhMHE4mRjk2TImQkEFymLGEJf1/RNDE4Xc2JiL8/3dmp6SJZxTcRwxACZ26+eD8KOZotpKAR8Ak4YRCjLiw6NTuI8R3nN+WZUEGJtaWtmyJ7F95jvZN7YmKkiPvpHJ5eXl5CNPEH5JtUQkBeYWTDQXHu4+U6yUUJLbR9Ijf7rGycrLec4vqZCIAJ3JHPD+WEfvb9zdBrW8fCLI4hyLTky4m5eDCAVSwOhmasm0GjbUdtzI4ezJE8b1b9Krkvtn3LEr6ZyspyUVEoY5097ewe1rL58PG8cNJIUZqYnJ3NtZ8sgFQowVw4baLQ3w9ZSD34ikDdgobxnSzY0BqAJALFGcc9F6KT9hX/Dis/kNJ4QKPjcjhZuRciZx0R/73O0VWIszw4OOXFScheXGRRV8XmY6LzP92CnW+m2bAic2CR2Acl7kxu2hyQ0nelEpksa5lsa5duzivBO7vMYp8UOUFe2x4mdO3SwXvSgUlCKCUoRbZOHpy27vGV+TSEDG2dl+1xBlAIEEKcovM6k0ptHZE1iMxEyR9CnnLt/XuvGQpfmcTPnRmmXHVhpaI0ugEsHGaDFgwRKXi3/HcPkpkbHFbk0Wf5BrkfIZ/8AZnj6sa5EAiICwRH75q7Amfpxy7GpmQ0LFwsLczMLczOir9w4d9/fsr2gIci6f/O54ccN3+ZaAj6QlX0tL5kTNWhsf6shUri7Pi/4jhStVFEmQZ/kJz/ITrnJ8dm3bO6nJqFEWrTibr4yYqEJYWMErzOUlXI1ng5/i51sqbAE+N3xdWOgd+QlQXioqRTg34jk3kqKX+Mf62jccFsWpAUvRg53SH8qKNAHiXc9MNdiPFOfIgWMwmUqXTZK0yIC5Z4tFADBHsJd6OY6zNhU94106H3cmS4iknly8d3Dyj/ZNjgqMIY6+rnY25mZdDcXVr5/euZ4UnckX8XnhqwNEB8O3f2jWEKi0+Ni64E2p6CDNBzl4u094v69x9cu8xLj4iwWSwtSfPdbQrx9xZ9WFXxwZIqe+MdPZ0917ou3A7kDEf8PjZXL4dvZqDBHQmD5b/RbYGDUE0I1ZF7xmkTQYGDjRxWfiYBtmTwYQljwvyqE7oDvhRMdxtEyOVJKWminyUD63AIBkc+UUGDbWrhGZGkwCIBUKsFx0M2Oyxq78KH4RR5gWHceZ78vGzm/yxtzo+IQqAIxZvt725qWp5gAIpPJjv5Ip5khH7zks1lBrG6YpwxCISosTYqOPZQhFz1LW7EhkH3BqFoOF83x316E9u9IBkFSWPE6Pjk3nVkl4FyLX2A8/56HEaWuW1wwXN9bgYcye5t2MQAWS9nd85OV8gbj4WOgJ59F+zg37diVnd8Dc8yiLQDcrt1lsJ5aluTEQV1UWcpOOxvKUdwk0dmle5OrQ0AwJAHT7KS4+n49hmdeU5KYfOxXPQYRpx8PWDDl8crpSJPLxMgY5+Lo7sPpZ9KCDstcI71nPhqVtmUyWFDzfdNQM0w98I57Imv29+WvzYrR21AzHiNyG2uwoxw/QwsGrEgpqGoplotyIBbPR9g6bTpfUl4uS5jjIGwc/qC/CPsXZvwaPkBs3dTlxW9RQWfL7pv7y8sHfX8lWKpeJik6vkkc7avbsX1/UdXj6x3R5MGPCsxtMNN9qKYySc3690LEv39lKV80ikclkKRGD0chnfxMvbh6CTPYiYi4Kheknu/4SNqrnXwqWD3m+f1qj8kZfam6tGId2HxGGIll97/AYua85cW8ampXdWvGpHO1Nt/gymew/LFOtxdPQT1ZT1JA7JXsPIpbL6eF3VJFQeafqR1GT5Wnt9dWvrYCnMC6+vWc5ivMorxXXG2BB45cnrpfLrguNjcv++xUj2PSo+izLZAXnMFbMnn4qt1phWyaTPU2Y8wk65F5fRjVE0lK6lTvJZLJWrnqrKpGiPM6fcZuWrJx7Qb4HMtmB823rjx0STvQ19NRmzNrg59RoGdTY1mfhBPSwIeYlplbWt2/tk87yWrtnlnxnLUo8ylG0zztzLhOdUHVzCAtyqZu1YzaMrRYELHbrhs5tErAYAAC19fYVG/UF7f7UMJK2/Vm6OsvXKPnpl9BjmOJPknY3Gx2yhR17pKKw2UZFZYm8U49u6HmSMXqWz2j0UJxwPpFX3xa5Gh9dCgDNaul8R3QaYGImnwxIkIqG2UJ928afNCvvWXboGU9cnFPQuKqlb4wR7ksnojNyUS4vs2HO2VJTQB/3xTT5SVjIK1Ac0CWc6CQeOkFiegf4ujU71zQ1JM2LipazYsisPfNsG00r+jutl/cX5aYnFjXtp+K7Evul+ZtmzDSzk/+P/9p2xiqXjScj76DTbkZ/x4MHfJ0VpxRpPucuOlzGIDt7Gh9BGv2X9WTK9wdJTv5TFY7rq8ycvSZhuHBS6zP4LJNTiNabT5zm2nw5r/cE70mmaHVhOue53Ey/4fZy7Hixkd/F5gkaZpz1TrT+1DQSNRwNnOwoXzkQ/pWoNO2W5nMy5NO8sWPZ9bPSFoxVCbGZurmpHAFg6TnHgQmAiBd/LFW+W0jzjkajZs3Hz1qAXe6YmGJEEQgUB5emhkX8SgEf7W7OtJBPsSVl5U3btPTdzG7EANR4LdJsjlLXXFReKSitFEkBYPa0MUQLy8rrd0JpNjZkYO24YGyT69qWvD1P58ivPlijbRmvG1EOQfg9LOUzVSmSk99S31bK2poU05huKxZtm+M4UDklEiRHvgOLeDFTpsW0YhnwW4e7UZchrGF0wJWCsmIEAQClcUGx/JAAhg0f3GgXr+tGH8ayYlzmiaRIThEA1gDQWOsDXDir47ni4jMhq6KPsFxnTlvgMYnddK2gkVu1vmgaiTpG+0/yHPszJ1WCcJI4VQ7OGLAFd+V7Mp09cUxLQ663W1GJrTEw5Md+lK+T3RcMSgkv4MfEpAZOYDNux8fkomcQzzmT6g6mJmY9DAGQArGCdpgxcQkn9sKxP9Nv5yAIdmlobDqwN5DfSK5319anpYX8Uk1aKapSbirh3Yg7FpuSyM0vxC61aXRmP1Mx5kVxfq5CnrxGezEG2Q5ri4ZouyKkUH5c48WEjWyVdDXynVzpAlI5rmbbSm5pVj4hS7ETEINWk3Zq9yaOEEj5JbVMS2XqAwCqKkWKMTSzqCgQ1yqf2RXFzTYMTc1N5GtKwspqrFIsxG7Lm3dVupRT6meOrWGDmuoq9AJIfpZYduP88PBD0cc4xQKEF3OcF3P6pP1k98DVXs5KyxdKNtTb1DwSNexauLk5BKSmCPjp0UmVztPRVBXezsyRzySdJqrMXJWwDGUAvQd67Sn/o7G8vViRO3iC5CtRBXY9otGzJmPINJ/x9Q0M6Si8YsCvUDr289M3LQ2L5DVOkFhY+EyN8JWaMOh1XtCjO/YnLYkJ+HHFVaRhNQm9WpUgRY19oVPXmro2xkqLDfVmWvisz0ULVQ1FjZclG8pb3lJiPzAaaG/Prl+EHjfIr3B+yLEiSdrRPaFj929H55f1fyZmDPnhhMH+IfeAU8MaU329hp/CuqOCqVlXrKexaQ90kQ4IqhutVynMClDSAwCMutbtBugXxlB24D72+mfc6OgLx2LTuRVCbuLPHhm8g6eDFtQPSmFB3Q2tImnTuPmU6Z7MlGOIMPFqimC6kzngc5Lz0RnmaMfPms/0lM2V1x37lQc+cIa769GwGD4vam+k8S30cMCeO6N+NQxFiSFPXVkFOmuSn1gqE3ZHyqlPZ03x3PwNe/zAnszudFE5v/BqpMu2dMXEXNmzmtvIxaNr5NQ3Z7EDV7g72VsNtKADcSWSG79o/s8cxU6CXtTVnZSAANUgqTrjYb7rczFuzU83FiqtgaoZWUvNlOb9TaotHLaHuqAzcmnxscCTHOWJIJ1pI0+SiIfe/2rv3/NinvyY34PJ7IHZsq6To+Vko5xo9ifJ4cnXyGjMYc1ozehvv2BN0K2r+096WKG7ZWl66NGUlozUWTU2xvZqSctns3ZE0ixspQJje58v0JtEgtvXoooAKE2RXwHT2U6NF86VemCbIjmDATA1Vj4pdndcOgOd5vA46ehSRO8JPp8rLtEAAGYM7NRdUVkndBPzLiXJL9tGz/t9n5ebnSWzOwoCo7sFa5BF3QGomWv1Cio5SXXLFXsP+flMskWpj96ZNmMOs2LK5/0NdowHswah30TZ6Uo3ahrqm271x64nQSusaNpcne+tsx89FC3aOw9Nkqgofu0hbgOHaIPZo+VXXUhKVLLS+VQdh83a8BKxOyP08WPrBVv97Jzl4gpB8rVLzWWM/NToZPmVk5UDu18zc1hBd1vPgLU+Q9AvyKM8Fbsoo2vdzBV51ezUDABofyStBMia5YJe3Yp5UdG8Qk6K/L4sy5WtzNoWeqI3ZdE/OgO76K1vMs7LRbHez5rhXnctgdXS6AxsVxFW1i3MiN8I5GZ6WFvhrfarLJFfPQMLq2FtTwmsXNny+8QV6RHHldhVP6imn1b24+SXMi2zomlrtb6rYj8A9HHLlvrId1BezNHwLAU/6GyPSfIVBf6ZnQdimk/pWnEtLkWQxucKUVb02lPyA7yFgye7fspLs13gZYeiV5Eeui0Ru9apMyktiQk9EYOmke48B1tEa8WZOidTABg22BFFyPlbaQVGYRKnSBT2GjaY03ycUK7zrpxY+zsPXaUZy3ZTPe0BoLpafqyh0c2xM5bCnPW0BfLFR2DM8vFSLExj1UbovB8AUZVQjIFv0pOJLhkD5FG20h1Zha32bJhZ9pFHhmSnYctxKo2x5szD1vS4Z0NdQuI5BejqkIhfwr0Rt2lnfNNjFo3lPUu+ClKR7h8Yx210na3STeuVyvP+llqZ2K9fN+3SimuF0uLIsDjP017YhJIxet42j/S5sYjoWcoiz7xoJzbb3tqmmxGQViLPn3LvcoHHroNOTVIEBJwDY2Zx3JwcPhzS07y2MicjJepKZiE6tzd1XvGNsliF6bEs8Nq6NXeEhTcOTPS85+M+xr6fmRjh/fV7YkyufGXww3nbPOonf+WcRfP/ABMc2Xa2A3ubMWhiQcnTtGtxkejqBxg4eriqJYUhY5yYcbxnoPDCbhdDd++xVuagEinITOBZBe7zsqcBzSJpCcJWyujO813GXfk5jc9LQHdmU6dZ8uX5VlpjxSIhdqVoVDeZaWhs5hmw32a+EJgw7Zte5RvXTZOqJHWaFJqdG9viWCwf5MbMXsJfOcvB3ronQ04EwX2krk2DZY22zNiT7Zg30hExb9PSgMI5TuxhTHNsRv+K96T5SomF495t7k/84tIqJGmxR1xij6h2xpq/3PdGQDhPgiSfnOKW4vq5A3uopbmJEajgPynK46QKXff7L6hb6lJtqa62Lfaji+7zA6ekLLohFGXGbbnidA67OQXMnAO2ngCh38UWC6qQhAsxCRca+bO3KwZOTQ5CaANBUeaZ45lnlNvSTNmL/U941VMZq6JZ+ewNFqzbHp7KF+SmhO9KUe7B/NDz/C6FzAGA3Ow7BfmFBfkx55VboduMQdP2fOeg6orK2H7lD46XfkwplArTYn9Oi623QGM5v/ZCbyNoFEl9b7U+h7r4Toube1U+i2NOWqB6tUdusWHmozzvx5z1tmq4gd/Ivan8ElmCrtTVldPZvr6+3LDIXAmScW1TxrVGzdv3hTlz6d7k4sVXEdGzzMhdmZFtWTOfsCj+Z1Z45M9nOMWKeQGj92DnCWbcq5noaV/5asGEFXjIH/jtDs8QihBezGle45VPC5t8bMm8La/19W2zH1089nU/mvxzmlh48VQcd8aiOuUMzdIt6NB4d86Z35NQjSfCR5WbJqYDra1Q9V/9cnO9I/ST+fmivSORmIT027l8pEpi3tvKfqzDgrmennb1cx7l1t1Z648eck2MP3Y55WbW00IBKgsdZmfn/LmLTxONp/WkdUsliak8bgGCigppdPNuFjZDbdmTp/l4OAxsThRlLwAwp/vf6B238/S1RC7aHZiYDhw0/JOJk8YpLgDVj6Sx5ba+mbl942J/LYYrBfYzpykm7ip6iaqwqyx63bW6iqYNVfQe2DlYIiyTAPSnS+j9AIftvxxkx1yISsjEQAM0OqqsNLdg9rccaD3YdXBDfw23LN127h82RZE1VONp3tXI3KIn05JpY2U1fmLTgzNjkGPgPsdAMb+wAEEkoIf5gIHWZozHZz+6mokev4wbc6O3Q+Dp456o8jc97VFxzmshar+bqc0g2/dHO3gN1TDYJsoHnXxVQ3GhE7+kN8pP2IWKghz8jj4lfazEBlivevJa/X86dKz6qlfDPQk21wiB0pSAfRz0J1du87ybTtY1MtThGpdzw0+lo1cg3ezZdjocnTozHx2672SmK9MSUwS9bS2Na0p4d6NOXbj4DID+7G3fNZWCdxZYpLzQhYe5NvbjRgwY1q+nubERqBLk8LgXL3DQowIA9l7uSnJo/FGB7Mcf01YtinlR2w6cqVt1l7eysNu+W0k+2GrPDlqBZKf9m8/JzE+43HyAdNbMpedW1N8Cal6PRwlkPx4oqmmjStJjEJMpRhAJ+lvH8ROdfJe4tLJQo6ZFijfrZufj6z7wXvaD3OIn8sdJMYxNLfuhv1R0mjHD60MLVYt1eAwdfZoVHnagDYgA9RCAV73UyxmMGC8EIPvxQhLaoR4CkP3UyxmMGC8EIPvxQhLaoR4CkP3UyxmMGC8EIPvxQhLaoR4C/w9uo5MWBttIFQAAAABJRU5ErkJggg==;" vertex="1" parent="1">
                    <mxGeometry x="523.96" y="583.25" width="99.43" height="127.5" as="geometry"/>
                </mxCell>
                <mxCell id="116" style="edgeStyle=orthogonalEdgeStyle;rounded=0;orthogonalLoop=1;jettySize=auto;html=1;exitX=1;exitY=0.25;exitDx=0;exitDy=0;entryX=0.5;entryY=0;entryDx=0;entryDy=0;entryPerimeter=0;startArrow=none;startFill=0;endArrow=block;endFill=1;dashed=1;" edge="1" parent="1" source="71" target="77">
                    <mxGeometry relative="1" as="geometry">
                        <Array as="points">
                            <mxPoint x="860" y="537"/>
                            <mxPoint x="860" y="857"/>
                            <mxPoint x="467" y="857"/>
                        </Array>
                    </mxGeometry>
                </mxCell>
                <mxCell id="71" value="&lt;meta http-equiv=&quot;content-type&quot; content=&quot;text/html; charset=utf-8&quot;&gt;&lt;img src=&quot;https://static.turbosquid.com/Preview/2019/11/23__20_37_02/cfrcontain1.pngEE3FC6C8-FD13-484A-80AE-346F4CBE5AB1Large.jpg&quot; alt=&quot;Modeled cartoon cargo container 3D - TurboSquid 1474819&quot;&gt;" style="text;whiteSpace=wrap;html=1;" vertex="1" parent="1">
                    <mxGeometry x="669" y="520" width="77" height="69" as="geometry"/>
                </mxCell>
                <mxCell id="118" style="edgeStyle=orthogonalEdgeStyle;rounded=0;orthogonalLoop=1;jettySize=auto;html=1;exitX=1;exitY=0.75;exitDx=0;exitDy=0;entryX=0.5;entryY=0;entryDx=0;entryDy=0;entryPerimeter=0;dashed=1;startArrow=none;startFill=0;endArrow=block;endFill=1;" edge="1" parent="1" source="72" target="86">
                    <mxGeometry relative="1" as="geometry">
                        <Array as="points">
                            <mxPoint x="884" y="747"/>
                            <mxPoint x="884" y="879"/>
                            <mxPoint x="694" y="879"/>
                        </Array>
                    </mxGeometry>
                </mxCell>
                <mxCell id="72" value="&lt;meta http-equiv=&quot;content-type&quot; content=&quot;text/html; charset=utf-8&quot;&gt;&lt;img src=&quot;https://static.turbosquid.com/Preview/2019/11/23__20_37_02/ccontain1.png64A1621C-B270-4168-A533-6D45AEDD4121Large.jpg&quot; alt=&quot;3D modeled cartoon cargo container model - TurboSquid 1474811&quot;&gt;" style="text;whiteSpace=wrap;html=1;" vertex="1" parent="1">
                    <mxGeometry x="665" y="681.75" width="85" height="86.5" as="geometry"/>
                </mxCell>
                <mxCell id="117" style="edgeStyle=orthogonalEdgeStyle;rounded=0;orthogonalLoop=1;jettySize=auto;html=1;exitX=1;exitY=0.75;exitDx=0;exitDy=0;entryX=0.5;entryY=0;entryDx=0;entryDy=0;entryPerimeter=0;dashed=1;startArrow=none;startFill=0;endArrow=block;endFill=1;" edge="1" parent="1" source="73" target="82">
                    <mxGeometry relative="1" as="geometry">
                        <Array as="points">
                            <mxPoint x="829" y="666"/>
                            <mxPoint x="829" y="866"/>
                            <mxPoint x="583" y="866"/>
                        </Array>
                    </mxGeometry>
                </mxCell>
                <mxCell id="73" value="&lt;meta http-equiv=&quot;content-type&quot; content=&quot;text/html; charset=utf-8&quot;&gt;&lt;img src=&quot;https://static.turbosquid.com/Preview/2019/11/24__02_33_52/cfrxcont2.pngC077BEF0-5A3D-4675-8E9D-73C6D4B50B41Large.jpg&quot; alt=&quot;Modeled cartoon cargo container 3D model - TurboSquid 1474854&quot;&gt;" style="text;whiteSpace=wrap;html=1;" vertex="1" parent="1">
                    <mxGeometry x="675" y="608.75" width="70" height="76.5" as="geometry"/>
                </mxCell>
                <mxCell id="78" value="" style="group;fillColor=#ffcccc;strokeColor=#36393d;" vertex="1" connectable="0" parent="1">
                    <mxGeometry x="442" y="937" width="51" height="174" as="geometry"/>
                </mxCell>
                <mxCell id="74" value="" style="html=1;dashed=0;whitespace=wrap;fillColor=#ffcccc;strokeColor=#36393d;points=[[0.005,0.63,0],[0.1,0.2,0],[0.9,0.2,0],[0.5,0,0],[0.995,0.63,0],[0.72,0.99,0],[0.5,1,0],[0.28,0.99,0]];shape=mxgraph.kubernetes.icon;prIcon=svc" vertex="1" parent="78">
                    <mxGeometry x="1" y="66" width="50" height="48" as="geometry"/>
                </mxCell>
                <mxCell id="76" value="" style="html=1;dashed=0;whitespace=wrap;fillColor=#ffcccc;strokeColor=#36393d;points=[[0.005,0.63,0],[0.1,0.2,0],[0.9,0.2,0],[0.5,0,0],[0.995,0.63,0],[0.72,0.99,0],[0.5,1,0],[0.28,0.99,0]];shape=mxgraph.kubernetes.icon;prIcon=pod" vertex="1" parent="78">
                    <mxGeometry x="1" y="126" width="50" height="48" as="geometry"/>
                </mxCell>
                <mxCell id="77" value="" style="html=1;dashed=0;whitespace=wrap;fillColor=#ffcccc;strokeColor=#36393d;points=[[0.005,0.63,0],[0.1,0.2,0],[0.9,0.2,0],[0.5,0,0],[0.995,0.63,0],[0.72,0.99,0],[0.5,1,0],[0.28,0.99,0]];shape=mxgraph.kubernetes.icon;prIcon=ns" vertex="1" parent="78">
                    <mxGeometry width="50" height="48" as="geometry"/>
                </mxCell>
                <mxCell id="90" value="Dev" style="text;html=1;strokeColor=#36393d;fillColor=#ffcccc;align=center;verticalAlign=middle;whiteSpace=wrap;rounded=0;" vertex="1" parent="78">
                    <mxGeometry x="5" y="14" width="40" height="20" as="geometry"/>
                </mxCell>
                <mxCell id="79" value="" style="group;fillColor=#cdeb8b;strokeColor=#36393d;" vertex="1" connectable="0" parent="1">
                    <mxGeometry x="558" y="937" width="51" height="174" as="geometry"/>
                </mxCell>
                <mxCell id="80" value="" style="html=1;dashed=0;whitespace=wrap;fillColor=#cdeb8b;strokeColor=#36393d;points=[[0.005,0.63,0],[0.1,0.2,0],[0.9,0.2,0],[0.5,0,0],[0.995,0.63,0],[0.72,0.99,0],[0.5,1,0],[0.28,0.99,0]];shape=mxgraph.kubernetes.icon;prIcon=svc" vertex="1" parent="79">
                    <mxGeometry x="1" y="66" width="50" height="48" as="geometry"/>
                </mxCell>
                <mxCell id="81" value="" style="html=1;dashed=0;whitespace=wrap;fillColor=#cdeb8b;strokeColor=#36393d;points=[[0.005,0.63,0],[0.1,0.2,0],[0.9,0.2,0],[0.5,0,0],[0.995,0.63,0],[0.72,0.99,0],[0.5,1,0],[0.28,0.99,0]];shape=mxgraph.kubernetes.icon;prIcon=pod" vertex="1" parent="79">
                    <mxGeometry x="1" y="126" width="50" height="48" as="geometry"/>
                </mxCell>
                <mxCell id="82" value="" style="html=1;dashed=0;whitespace=wrap;fillColor=#cdeb8b;strokeColor=#36393d;points=[[0.005,0.63,0],[0.1,0.2,0],[0.9,0.2,0],[0.5,0,0],[0.995,0.63,0],[0.72,0.99,0],[0.5,1,0],[0.28,0.99,0]];shape=mxgraph.kubernetes.icon;prIcon=ns" vertex="1" parent="79">
                    <mxGeometry width="50" height="48" as="geometry"/>
                </mxCell>
                <mxCell id="91" value="Test" style="text;html=1;strokeColor=#36393d;fillColor=#cdeb8b;align=center;verticalAlign=middle;whiteSpace=wrap;rounded=0;" vertex="1" parent="79">
                    <mxGeometry x="5.5" y="14" width="40" height="20" as="geometry"/>
                </mxCell>
                <mxCell id="83" value="" style="group;fillColor=#cce5ff;strokeColor=#36393d;" vertex="1" connectable="0" parent="1">
                    <mxGeometry x="669" y="937" width="51" height="174" as="geometry"/>
                </mxCell>
                <mxCell id="84" value="" style="html=1;dashed=0;whitespace=wrap;fillColor=#cce5ff;strokeColor=#36393d;points=[[0.005,0.63,0],[0.1,0.2,0],[0.9,0.2,0],[0.5,0,0],[0.995,0.63,0],[0.72,0.99,0],[0.5,1,0],[0.28,0.99,0]];shape=mxgraph.kubernetes.icon;prIcon=svc" vertex="1" parent="83">
                    <mxGeometry x="1" y="66" width="50" height="48" as="geometry"/>
                </mxCell>
                <mxCell id="85" value="" style="html=1;dashed=0;whitespace=wrap;fillColor=#cce5ff;strokeColor=#36393d;points=[[0.005,0.63,0],[0.1,0.2,0],[0.9,0.2,0],[0.5,0,0],[0.995,0.63,0],[0.72,0.99,0],[0.5,1,0],[0.28,0.99,0]];shape=mxgraph.kubernetes.icon;prIcon=pod" vertex="1" parent="83">
                    <mxGeometry x="1" y="126" width="50" height="48" as="geometry"/>
                </mxCell>
                <mxCell id="86" value="" style="html=1;dashed=0;whitespace=wrap;fillColor=#cce5ff;strokeColor=#36393d;points=[[0.005,0.63,0],[0.1,0.2,0],[0.9,0.2,0],[0.5,0,0],[0.995,0.63,0],[0.72,0.99,0],[0.5,1,0],[0.28,0.99,0]];shape=mxgraph.kubernetes.icon;prIcon=ns" vertex="1" parent="83">
                    <mxGeometry width="50" height="48" as="geometry"/>
                </mxCell>
                <mxCell id="92" value="Prod" style="text;html=1;strokeColor=#36393d;fillColor=#cce5ff;align=center;verticalAlign=middle;whiteSpace=wrap;rounded=0;" vertex="1" parent="83">
                    <mxGeometry x="6" y="14" width="40" height="20" as="geometry"/>
                </mxCell>
                <mxCell id="87" value="&lt;b&gt;Dev&lt;/b&gt;" style="text;html=1;strokeColor=none;fillColor=none;align=center;verticalAlign=middle;whiteSpace=wrap;rounded=0;" vertex="1" parent="1">
                    <mxGeometry x="739.67" y="558" width="40" height="20" as="geometry"/>
                </mxCell>
                <mxCell id="88" value="&lt;b&gt;Test&lt;/b&gt;" style="text;html=1;strokeColor=none;fillColor=none;align=center;verticalAlign=middle;whiteSpace=wrap;rounded=0;" vertex="1" parent="1">
                    <mxGeometry x="739.67" y="637" width="40" height="20" as="geometry"/>
                </mxCell>
                <mxCell id="89" value="&lt;b&gt;Prod&lt;/b&gt;" style="text;html=1;strokeColor=none;fillColor=none;align=center;verticalAlign=middle;whiteSpace=wrap;rounded=0;" vertex="1" parent="1">
                    <mxGeometry x="739.67" y="715" width="40" height="20" as="geometry"/>
                </mxCell>
                <mxCell id="93" value="&lt;meta http-equiv=&quot;content-type&quot; content=&quot;text/html; charset=utf-8&quot;&gt;&lt;img src=&quot;https://www.smile.eu/sites/default/files/styles/picture_news_technology/public/2017-08/kubernetes-logo_0.png?itok=9_2q6SOF&quot; alt=&quot;Kubernetes | Smile.eu&quot;&gt;" style="text;whiteSpace=wrap;html=1;" vertex="1" parent="1">
                    <mxGeometry x="293" y="971.75" width="111.33" height="104.5" as="geometry"/>
                </mxCell>
                <mxCell id="104" style="edgeStyle=orthogonalEdgeStyle;curved=1;rounded=0;orthogonalLoop=1;jettySize=auto;html=1;exitX=0.5;exitY=1;exitDx=0;exitDy=0;entryX=0.5;entryY=0;entryDx=0;entryDy=0;entryPerimeter=0;startArrow=none;startFill=0;endArrow=block;endFill=1;" edge="1" parent="1" source="94" target="95">
                    <mxGeometry relative="1" as="geometry"/>
                </mxCell>
                <mxCell id="94" value="Clean" style="text;strokeColor=none;fillColor=none;html=1;fontSize=24;fontStyle=1;verticalAlign=middle;align=center;" vertex="1" parent="1">
                    <mxGeometry x="349" y="603.75" width="100" height="40" as="geometry"/>
                </mxCell>
                <mxCell id="115" style="edgeStyle=orthogonalEdgeStyle;curved=1;rounded=0;orthogonalLoop=1;jettySize=auto;html=1;exitX=0.5;exitY=1;exitDx=0;exitDy=0;exitPerimeter=0;entryX=0.25;entryY=0;entryDx=0;entryDy=0;startArrow=none;startFill=0;endArrow=block;endFill=1;" edge="1" parent="1" source="95" target="114">
                    <mxGeometry relative="1" as="geometry"/>
                </mxCell>
                <mxCell id="95" value="" style="html=1;dashed=0;whitespace=wrap;fillColor=#2875E2;strokeColor=#ffffff;points=[[0.005,0.63,0],[0.1,0.2,0],[0.9,0.2,0],[0.5,0,0],[0.995,0.63,0],[0.72,0.99,0],[0.5,1,0],[0.28,0.99,0]];shape=mxgraph.kubernetes.icon;prIcon=deploy" vertex="1" parent="1">
                    <mxGeometry x="374" y="694.25" width="50" height="48" as="geometry"/>
                </mxCell>
            </root>
        </mxGraphModel>
    </diagram>
</mxfile>